<?xml version="1.0" encoding="utf-8"?>
<!-- Generator: Adobe Illustrator 15.0.0, SVG Export Plug-In . SVG Version: 6.00 Build 0)  -->
<!DOCTYPE svg PUBLIC "-//W3C//DTD SVG 1.1//EN" "http://www.w3.org/Graphics/SVG/1.1/DTD/svg11.dtd">
<svg version="1.1" id="Layer_1" xmlns="http://www.w3.org/2000/svg" xmlns:xlink="http://www.w3.org/1999/xlink" x="0px" y="0px"
	 width="500px" height="500px" viewBox="0 0 500 500" enable-background="new 0 0 500 500" xml:space="preserve">
<g id="Layer_1_1_">
	<g id="mail_1_">
		<path fill="#FFFFFF" d="M2.396,4.749c0.326,0.181,4.832,2.686,5,2.779C7.565,7.621,7.781,7.666,8,7.666
			c0.219,0,0.437-0.045,0.604-0.137c0.167-0.094,4.675-2.598,5-2.779C13.93,4.568,14.239,4,13.641,4H2.361
			C1.764,4,2.071,4.568,2.396,4.749 M13.743,6.128c-0.37,0.199-4.912,2.656-5.139,2.779C8.378,9.03,8.219,9.045,8,9.045
			c-0.22,0-0.378-0.015-0.604-0.137c-0.227-0.124-4.768-2.58-5.138-2.779C1.999,5.988,2,6.152,2,6.28v5.059
			C2,11.628,2.373,12,2.662,12H13.34c0.289,0,0.66-0.372,0.66-0.661V6.28C14,6.152,14.003,5.988,13.743,6.128"/>
	</g>
	<g id="phone_1_">
		<path fill="#FFFFFF" d="M26.621,1H21.38C20.621,1,20,1.643,20,2.429v11.143C20,14.357,20.621,15,21.379,15h5.241
			c0.759,0,1.38-0.643,1.38-1.429V2.429C28,1.643,27.379,1,26.621,1 M24,14.428c-0.533,0-0.966-0.319-0.966-0.714
			C23.034,13.32,23.467,13,24,13s0.965,0.32,0.965,0.714C24.965,14.109,24.533,14.428,24,14.428 M26.896,12.286h-5.793V2.857h5.793
			V12.286z"/>
	</g>
	<g id="logo_bg">
		<rect x="0" y="16" fill="#212121" width="80" height="32"/>
	</g>
	<g id="logo">
		<path fill="#FFFFFF" d="M20.211,29.779c0.174,0.789,0.197,1.622,0.197,2.342c0,1.354-0.056,3.11-1.118,4.209
			c-0.621,0.642-1.485,0.974-2.361,0.974c-0.877,0-1.738-0.332-2.362-0.974c-1.058-1.099-1.113-2.854-1.113-4.209
			c0-1.352,0.057-3.11,1.113-4.208c0.624-0.641,1.485-0.968,2.362-0.968c0.616,0,1.22,0.168,1.74,0.488l1.012-1.248
			c-0.813-0.524-1.771-0.799-2.752-0.799c-1.299,0-2.563,0.477-3.495,1.394c-1.408,1.37-1.665,3.275-1.665,5.341
			c0,2.07,0.257,3.971,1.665,5.343c0.934,0.916,2.196,1.392,3.495,1.392c1.3,0,2.561-0.476,3.495-1.392
			c1.408-1.373,1.667-3.273,1.667-5.343c0-1.404-0.13-2.728-0.648-3.865L20.211,29.779L20.211,29.779z"/>
		<polygon fill="#FFFFFF" points="4.064,25.625 2.436,25.625 2.436,38.6 10.303,38.6 10.303,37.083 4.064,37.083 		"/>
		<path fill="#FFFFFF" d="M32.942,29.878c0.156,0.76,0.173,1.555,0.173,2.243c0,1.354-0.055,3.113-1.117,4.209
			c-0.621,0.642-1.482,0.971-2.361,0.971c-0.878,0-1.735-0.329-2.359-0.971c-1.061-1.096-1.115-2.854-1.115-4.209
			c0-1.354,0.055-3.111,1.115-4.208c0.624-0.641,1.481-0.968,2.359-0.968c0.646,0,1.276,0.178,1.816,0.526l1.001-1.243
			c-0.826-0.552-1.812-0.842-2.818-0.842c-1.296,0-2.561,0.477-3.495,1.393c-1.408,1.372-1.665,3.273-1.665,5.342
			c0,2.07,0.257,3.971,1.665,5.343c0.935,0.916,2.199,1.392,3.495,1.392c1.299,0,2.564-0.476,3.497-1.392
			c1.41-1.373,1.665-3.273,1.665-5.343c0-1.37-0.119-2.665-0.607-3.783L32.942,29.878L32.942,29.878z"/>
		<g>
			<path fill="#FFFFFF" d="M45.924,26.796c-0.693-0.751-1.773-1.171-3.293-1.171h-4.814V38.6h1.629v-5.03h3.205
				c1.428,0,2.486-0.384,3.185-1.08c0.692-0.697,1.08-1.685,1.08-2.948C46.914,28.408,46.546,27.474,45.924,26.796 M42.611,32.086
				h-3.166v-4.98h3.148c1.608,0,2.637,0.789,2.637,2.436C45.23,31.282,44.352,32.086,42.611,32.086"/>
			<path fill="#FFFFFF" d="M75.639,25.487l-1.174,1.171c0.932,1.456,1.479,3.174,1.479,5.024c0,5.159-4.195,9.355-9.354,9.355
				c-5.158,0-9.355-4.197-9.355-9.355c0-5.157,4.197-9.353,9.355-9.353c1.856,0,3.588,0.552,5.044,1.488L72.8,22.65
				c-1.767-1.22-3.905-1.939-6.212-1.939c-6.05,0-10.975,4.922-10.975,10.972c0,6.051,4.925,10.973,10.975,10.973
				c6.051,0,10.977-4.921,10.977-10.973C77.563,29.386,76.848,27.252,75.639,25.487"/>
		</g>
	</g>
	<g id="work">
		<rect x="1" y="51" fill="#989898" width="23" height="4"/>
		<rect x="1" y="58.001" fill="#989898" width="23" height="4"/>
		<rect x="1" y="65" fill="#989898" width="23" height="4"/>
	</g>
	<g id="work_hover">
		<rect x="1" y="76" fill="#212121" width="23" height="4"/>
		<rect x="1" y="83.001" fill="#212121" width="23" height="4"/>
		<rect x="1" y="90" fill="#212121" width="23" height="4"/>
	</g>
	<g id="work_white">
		<g id="work_hover_1_">
			<rect x="1" y="101" fill="#FFFFFF" width="23" height="4"/>
			<rect x="1" y="108.001" fill="#FFFFFF" width="23" height="4"/>
			<rect x="1" y="115" fill="#FFFFFF" width="23" height="4"/>
		</g>
	</g>
	<g id="inspire_1_">
		<path fill="#989898" d="M44.246,57.441c0,0-0.855,0.052-2.938,1.232l-0.133-0.192c0.063-1.61,0.223-3.572,0.661-4.761
			c-0.258,0.146-1.216,0.98-2.327,1.835c-0.57-1.405-0.759-4.098-0.078-5.556c-5.287,3.904-8.426,9.5-8.427,13.001
			c-0.003,2.729-0.386,6.841,6.019,6.841C46.99,69.842,41.838,62.402,44.246,57.441 M37.747,67.886
			c-7.215,0.21-2.606-7.046-3.371-5.581c-0.101,0.193-0.637,1.899,1.921,3.294c-1.256-1.612,1.025-3.54,1.874-4.432
			c0,2.286,0.898,4.432,0.898,4.432s1.459-0.882,2.51-4.058C42.486,65.604,41.775,67.769,37.747,67.886"/>
	</g>
	<g id="inspire_hover_1_">
		<path fill="#212121" d="M44.246,82.441c0,0-0.855,0.052-2.938,1.232l-0.133-0.192c0.063-1.61,0.223-3.572,0.661-4.761
			c-0.258,0.146-1.216,0.98-2.327,1.835c-0.57-1.405-0.759-4.098-0.078-5.556c-5.287,3.904-8.426,9.5-8.427,13.001
			c-0.003,2.729-0.386,6.842,6.019,6.842C46.99,94.843,41.838,87.4,44.246,82.441 M37.747,92.886
			c-7.215,0.212-2.606-7.045-3.371-5.579c-0.101,0.192-0.637,1.897,1.921,3.295c-1.256-1.613,1.025-3.541,1.874-4.433
			c0,2.286,0.898,4.433,0.898,4.433s1.459-0.884,2.51-4.06C42.486,90.604,41.775,92.77,37.747,92.886"/>
	</g>
	<g id="portfolio">
		<g>
			<rect x="57.823" y="51" fill="#989898" width="12.178" height="18"/>
			<rect x="55" y="51" fill="#989898" width="1.885" height="18"/>
			<rect x="60.621" y="53.833" fill="#FFFFFF" width="6.563" height="3.79"/>
		</g>
	</g>
	<g id="portfolio_hover">
		<g>
			<rect x="57.823" y="76" fill="#212121" width="12.178" height="18"/>
			<rect x="55" y="76" fill="#212121" width="1.885" height="18"/>
			<rect x="60.621" y="78.833" fill="#FFFFFF" width="6.563" height="3.79"/>
		</g>
	</g>
	<g id="close_white">
		<g>
			
				<rect x="86.204" y="50.507" transform="matrix(-0.707 -0.7072 0.7072 -0.707 106.9297 165.296)" fill="#FFFFFF" width="3" height="19.984"/>
			
				<rect x="86.2" y="50.513" transform="matrix(0.7074 -0.7069 0.7069 0.7074 -17.1038 79.6987)" fill="#FFFFFF" width="3" height="19.985"/>
		</g>
		<g>
			
				<rect x="85.204" y="50.507" transform="matrix(-0.707 -0.7072 0.7072 -0.707 105.2227 164.5888)" fill="#FFFFFF" width="3" height="19.984"/>
			
				<rect x="85.208" y="50.509" transform="matrix(0.707 -0.7072 0.7072 0.707 -17.3824 79.0439)" fill="#FFFFFF" width="3" height="19.983"/>
		</g>
		<g>
			
				<rect x="85.926" y="50.048" transform="matrix(-0.7071 -0.7071 0.7071 -0.7071 106.5841 165.1481)" fill="#FFFFFF" width="3.138" height="20.903"/>
			
				<rect x="85.931" y="50.05" transform="matrix(0.7071 -0.7071 0.7071 0.7071 -17.1522 79.5923)" fill="#FFFFFF" width="3.138" height="20.901"/>
		</g>
	</g>
	<g id="close_black">
		<g>
			
				<rect x="85.933" y="75.053" transform="matrix(-0.7069 -0.7073 0.7073 -0.7069 88.8717 207.8432)" fill="#010101" width="3.137" height="20.907"/>
			
				<rect x="85.932" y="75.045" transform="matrix(0.7073 -0.7069 0.7069 0.7073 -34.8275 86.8738)" fill="#010101" width="3.138" height="20.904"/>
		</g>
	</g>
	<g id="twitter">
		<path fill="#989898" d="M23,127.25c-0.848,0.381-1.757,0.639-2.712,0.755c0.976-0.593,1.723-1.534,2.076-2.653
			c-0.912,0.551-1.923,0.949-2.996,1.164c-0.862-0.934-2.088-1.516-3.445-1.516c-2.604,0-4.717,2.148-4.717,4.798
			c0,0.375,0.041,0.74,0.122,1.093c-3.921-0.201-7.399-2.107-9.727-5.012c-0.408,0.707-0.64,1.531-0.64,2.411
			c0,1.663,0.833,3.131,2.099,3.992c-0.771-0.025-1.5-0.239-2.137-0.601c-0.001,0.02-0.001,0.039-0.001,0.06
			c0,2.323,1.627,4.261,3.785,4.703c-0.396,0.111-0.813,0.168-1.243,0.168c-0.304,0-0.598-0.029-0.887-0.086
			c0.6,1.906,2.343,3.293,4.406,3.33c-1.613,1.287-3.648,2.054-5.859,2.054c-0.379,0-0.757-0.021-1.125-0.067
			c2.088,1.361,4.567,2.156,7.233,2.156c8.68,0,13.427-7.309,13.427-13.645c0-0.209-0.005-0.416-0.014-0.621
			C21.567,129.057,22.367,128.212,23,127.25"/>
	</g>
	<g id="twitter_hover">
		<path fill="#FFFFFF" d="M23,150.25c-0.848,0.381-1.757,0.639-2.712,0.755c0.976-0.593,1.723-1.534,2.076-2.653
			c-0.912,0.551-1.923,0.949-2.996,1.164c-0.862-0.934-2.088-1.516-3.445-1.516c-2.604,0-4.717,2.148-4.717,4.798
			c0,0.375,0.041,0.74,0.122,1.093c-3.921-0.201-7.399-2.107-9.727-5.012c-0.408,0.707-0.64,1.531-0.64,2.411
			c0,1.663,0.833,3.131,2.099,3.992c-0.771-0.025-1.5-0.239-2.137-0.601c-0.001,0.02-0.001,0.039-0.001,0.06
			c0,2.323,1.627,4.262,3.785,4.703c-0.396,0.111-0.813,0.168-1.243,0.168c-0.304,0-0.598-0.029-0.887-0.086
			c0.6,1.906,2.343,3.293,4.406,3.33c-1.613,1.287-3.648,2.054-5.859,2.054c-0.379,0-0.757-0.021-1.125-0.067
			c2.088,1.361,4.567,2.156,7.233,2.156c8.68,0,13.427-7.309,13.427-13.646c0-0.209-0.005-0.416-0.014-0.621
			C21.567,152.057,22.367,151.212,23,150.25"/>
	</g>
	<g id="facebook">
		<path fill="#989898" d="M41,126.999h-3.713c-0.438,0-0.929,0.567-0.929,1.328v2.635H41v3.755h-4.642V146h-4.384v-11.282H28v-3.755
			h3.975v-2.212c0-3.17,2.238-5.75,5.313-5.75H41V126.999z"/>
	</g>
	<g id="facebook_hover">
		<path fill="#FFFFFF" d="M41,149.999h-3.713c-0.438,0-0.929,0.567-0.929,1.328v2.635H41v3.756h-4.642V169h-4.384v-11.282H28v-3.756
			h3.975v-2.212c0-3.17,2.238-5.75,5.313-5.75H41V149.999z"/>
	</g>
	<g id="vine">
		<path fill="#989898" d="M68.886,129.04c-1.286,7.576-8.467,13.99-10.626,15.456c-2.158,1.466-4.13-0.587-4.844-2.14
			c-0.818-1.769-3.271-11.359-3.913-12.154c-0.644-0.795-2.567,0.795-2.567,0.795L46,129.716c0,0,3.912-4.892,6.889-5.502
			c3.157-0.647,3.152,5.071,3.91,8.248c0.735,3.07,1.229,4.828,1.868,4.828c0.644,0,1.87-1.713,3.211-4.339
			c1.347-2.628-0.059-4.951-2.686-3.298C60.244,123.053,70.17,121.467,68.886,129.04"/>
	</g>
	<g id="vine_hover">
		<path fill="#FFFFFF" d="M68.886,152.04c-1.286,7.576-8.467,13.99-10.626,15.456c-2.158,1.466-4.13-0.587-4.844-2.14
			c-0.818-1.769-3.271-11.359-3.913-12.154c-0.644-0.795-2.567,0.795-2.567,0.795L46,152.716c0,0,3.912-4.892,6.889-5.502
			c3.157-0.647,3.152,5.071,3.91,8.248c0.735,3.07,1.229,4.828,1.868,4.828c0.644,0,1.87-1.713,3.211-4.339
			c1.347-2.629-0.059-4.951-2.686-3.299C60.244,146.053,70.17,144.467,68.886,152.04"/>
	</g>
	<circle fill="#EF3D3C" cx="40" cy="8" r="2"/>
	<path fill="#FFFFFF" d="M92,16c-6.625,0-12,5.375-12,12c0,8,12,20,12,20s12-12,12-20C104,21.375,98.625,16,92,16z M92,36
		c-4.419,0-8-3.584-8-8s3.581-8,8-8s8,3.584,8,8S96.419,36,92,36z"/>
	<g>
		<g>
			<path fill="#989898" d="M76.847,128.164c-0.161-0.294-0.403-0.622-0.896-0.622H72.73c-0.193,0-0.356,0.07-0.438,0.207
				c-0.085,0.143-0.072,0.324,0.019,0.509l2.176,3.882c0.004,0.008,0.004,0.013,0,0.019l-3.421,6.22
				c-0.089,0.183-0.084,0.367,0,0.509c0.083,0.137,0.228,0.226,0.42,0.226h3.222c0.48,0,0.713-0.335,0.878-0.641
				c0,0,3.345-6.096,3.476-6.333C79.046,132.118,76.847,128.164,76.847,128.164z M89.932,123.724
				c0.089-0.183,0.091-0.37,0.006-0.512c-0.083-0.137-0.234-0.212-0.429-0.212h-3.252c-0.481,0-0.689,0.313-0.862,0.632
				c0,0-6.937,12.672-7.165,13.088c0.013,0.023,4.575,8.647,4.575,8.647c0.16,0.294,0.406,0.632,0.9,0.632h3.216
				c0.193,0,0.346-0.075,0.427-0.212c0.086-0.142,0.083-0.328-0.007-0.512l-4.539-8.544c-0.005-0.006-0.005-0.015,0-0.022
				L89.932,123.724z"/>
		</g>
	</g>
	<g>
		<g>
			<path fill="#FFFFFF" d="M76.847,151.164c-0.161-0.294-0.403-0.622-0.896-0.622H72.73c-0.193,0-0.356,0.07-0.438,0.207
				c-0.085,0.143-0.072,0.324,0.019,0.509l2.176,3.882c0.004,0.008,0.004,0.013,0,0.019l-3.421,6.22
				c-0.089,0.183-0.084,0.367,0,0.509c0.083,0.137,0.228,0.226,0.42,0.226h3.222c0.48,0,0.713-0.335,0.878-0.641
				c0,0,3.345-6.096,3.476-6.333C79.046,155.119,76.847,151.164,76.847,151.164z M89.932,146.724
				c0.089-0.183,0.091-0.37,0.006-0.512c-0.083-0.137-0.234-0.212-0.429-0.212h-3.252c-0.481,0-0.689,0.313-0.862,0.632
				c0,0-6.937,12.672-7.165,13.089c0.013,0.023,4.575,8.647,4.575,8.647c0.16,0.294,0.406,0.632,0.9,0.632h3.216
				c0.193,0,0.346-0.075,0.427-0.212c0.086-0.142,0.083-0.328-0.007-0.512l-4.539-8.544c-0.005-0.006-0.005-0.015,0-0.022
				L89.932,146.724z"/>
		</g>
	</g>
	<path fill="#989898" d="M113.5,135.228c0,0.824,0,1.648,0,2.473c-0.833,0-1.667,0-2.5,0c-0.903,2.951-4.405,7.969-7.857,8.299
		c-6.013-3.075-9.466-10.604-9.643-19.424c1.13,0.059,2.262,0.118,3.393,0.177c-0.168,7.073,2.525,12.939,6.608,15.892
		c1.799-1.311,4.073-3.748,4.464-6.357c-3.083-1.578-6.967-9.213-2.5-12.184c5.839-3.884,9.188,3.333,7.5,8.477
		c-1.072,0-2.144,0-3.215,0c0-0.178,0-0.354,0-0.53c0.498-1.345,0.786-4.68-0.357-5.474c-0.886-0.541-1.838-0.315-2.321,0.53
		C104.921,131.167,109.657,135.301,113.5,135.228z"/>
	<path fill="#FFFFFF" d="M113.5,158.228c0,0.824,0,1.648,0,2.473c-0.833,0-1.667,0-2.5,0c-0.903,2.951-4.405,7.969-7.857,8.299
		c-6.013-3.075-9.466-10.604-9.643-19.424c1.13,0.059,2.262,0.118,3.393,0.177c-0.168,7.073,2.525,12.94,6.608,15.892
		c1.799-1.311,4.073-3.748,4.464-6.357c-3.083-1.578-6.967-9.213-2.5-12.184c5.839-3.884,9.188,3.333,7.5,8.477
		c-1.072,0-2.144,0-3.215,0c0-0.177,0-0.354,0-0.53c0.498-1.345,0.786-4.68-0.357-5.474c-0.886-0.541-1.838-0.315-2.321,0.53
		C104.921,154.167,109.657,158.301,113.5,158.228z"/>
	<path fill="#989898" d="M116.22,128.735c0,1.952,0.64,3.361,1.902,4.188c1.032,0.678,2.232,0.779,2.855,0.779
		c0.152,0,0.273-0.006,0.358-0.012c0,0-0.198,1.311,0.756,2.609h-0.043c-1.654,0-7.05,0.352-7.05,4.869
		c0,4.596,4.956,4.83,5.95,4.83c0.077,0,0.123-0.001,0.123-0.001c0.012,0,0.082,0.003,0.203,0.003c0.639,0,2.287-0.082,3.819-0.84
		c1.987-0.982,2.995-2.69,2.995-5.077c0-2.307-1.536-3.679-2.657-4.683c-0.684-0.611-1.274-1.139-1.274-1.652
		c0-0.523,0.432-0.917,0.978-1.414c0.884-0.806,1.717-1.952,1.717-4.118c0-1.904-0.243-3.183-1.736-3.994
		c0.155-0.081,0.706-0.141,0.979-0.179c0.809-0.113,1.994-0.24,1.994-0.914V123h-5.902
		C122.129,123.001,116.22,123.224,116.22,128.735z M125.747,140.512c0.112,1.838-1.432,3.194-3.75,3.366
		c-2.354,0.175-4.293-0.904-4.406-2.74c-0.055-0.882,0.327-1.747,1.072-2.435c0.757-0.697,1.795-1.127,2.924-1.212
		c0.133-0.008,0.266-0.014,0.397-0.014C124.165,137.477,125.641,138.781,125.747,140.512z M124.206,127.477
		c0.579,2.073-0.295,4.242-1.688,4.641c-0.16,0.046-0.326,0.069-0.494,0.069c-1.275,0-2.542-1.315-3.009-3.126
		c-0.262-1.018-0.241-1.907,0.06-2.762c0.295-0.841,0.825-1.409,1.492-1.601c0.16-0.046,0.326-0.069,0.494-0.069
		C122.602,124.629,123.592,125.28,124.206,127.477z M134.15,131.993v-3.92h-2.438v3.92h-3.851v2.482h3.851v3.92h2.438v-3.92H138
		v-2.482H134.15z"/>
	<path fill="#FFFFFF" d="M116.22,151.735c0,1.952,0.64,3.361,1.902,4.189c1.032,0.678,2.232,0.779,2.855,0.779
		c0.152,0,0.273-0.006,0.358-0.012c0,0-0.198,1.311,0.756,2.609h-0.043c-1.654,0-7.05,0.352-7.05,4.869
		c0,4.596,4.956,4.83,5.95,4.83c0.077,0,0.123-0.001,0.123-0.001c0.012,0,0.082,0.003,0.203,0.003c0.639,0,2.287-0.082,3.819-0.84
		c1.987-0.982,2.995-2.69,2.995-5.077c0-2.307-1.536-3.679-2.657-4.683c-0.684-0.611-1.274-1.139-1.274-1.652
		c0-0.523,0.432-0.917,0.978-1.414c0.884-0.806,1.717-1.952,1.717-4.118c0-1.904-0.243-3.183-1.736-3.994
		c0.155-0.081,0.706-0.141,0.979-0.179c0.809-0.113,1.994-0.24,1.994-0.914V146h-5.902
		C122.129,146.001,116.22,146.224,116.22,151.735z M125.747,163.513c0.112,1.838-1.432,3.194-3.75,3.366
		c-2.354,0.175-4.293-0.904-4.406-2.74c-0.055-0.882,0.327-1.747,1.072-2.435c0.757-0.697,1.795-1.127,2.924-1.212
		c0.133-0.008,0.266-0.014,0.397-0.014C124.165,160.478,125.641,161.782,125.747,163.513z M124.206,150.477
		c0.579,2.073-0.295,4.242-1.688,4.641c-0.16,0.046-0.326,0.069-0.494,0.069c-1.275,0-2.542-1.315-3.009-3.126
		c-0.262-1.018-0.241-1.907,0.06-2.762c0.295-0.841,0.825-1.409,1.492-1.601c0.16-0.046,0.326-0.069,0.494-0.069
		C122.602,147.629,123.592,148.28,124.206,150.477z M134.15,154.993v-3.92h-2.438v3.92h-3.851v2.483h3.851v3.92h2.438v-3.92H138
		v-2.483H134.15z"/>
	<g>
		<path fill="#989898" d="M143.208,125.493c0,1.377-1.003,2.493-2.653,2.493c-1.552,0-2.555-1.116-2.555-2.493
			c0-1.411,1.035-2.494,2.62-2.494S143.176,124.083,143.208,125.493z M138.129,145.999v-16.043h4.917v16.043H138.129z"/>
		<path fill="#989898" d="M145.989,135.073c0-2.001-0.063-3.673-0.129-5.117h4.271l0.227,2.231h0.098
			c0.646-1.051,2.231-2.593,4.885-2.593c3.235,0,5.661,2.199,5.661,6.923v9.482h-4.917v-8.892c0-2.067-0.712-3.478-2.491-3.478
			c-1.358,0-2.167,0.951-2.522,1.87c-0.13,0.328-0.161,0.787-0.161,1.246v9.253h-4.917v-10.925H145.989z"/>
	</g>
	<g>
		<path fill="#FFFFFF" d="M143.208,148.493c0,1.377-1.003,2.493-2.653,2.493c-1.552,0-2.555-1.116-2.555-2.493
			c0-1.411,1.035-2.494,2.62-2.494S143.176,147.083,143.208,148.493z M138.129,169v-16.044h4.917V169H138.129z"/>
		<path fill="#FFFFFF" d="M145.989,158.073c0-2.001-0.063-3.674-0.129-5.118h4.271l0.227,2.231h0.098
			c0.646-1.051,2.231-2.593,4.885-2.593c3.235,0,5.661,2.199,5.661,6.923V169h-4.917v-8.892c0-2.067-0.712-3.478-2.491-3.478
			c-1.358,0-2.167,0.951-2.522,1.87c-0.13,0.328-0.161,0.787-0.161,1.246V169h-4.917v-10.927H145.989z"/>
	</g>
	<path fill="#989898" d="M170.283,133.706c0,0,2.176-0.167,2.176-2.795s-1.78-3.911-4.036-3.911H161v14.689h7.422
		c0,0,4.531,0.147,4.531-4.336C172.954,137.353,173.151,133.706,170.283,133.706z M164.271,129.61h4.151c0,0,1.009,0,1.009,1.529
		c0,1.528-0.593,1.75-1.266,1.75h-3.895V129.61z M168.213,139.078h-3.942v-3.925h4.151c0,0,1.504-0.021,1.504,2.017
		C169.926,138.888,168.803,139.064,168.213,139.078z M178.997,130.737c-5.485,0-5.481,5.643-5.481,5.643s-0.376,5.615,5.481,5.615
		c0,0,4.88,0.288,4.88-3.906h-2.51c0,0,0.083,1.58-2.287,1.58c0,0-2.511,0.173-2.511-2.556h7.392
		C183.961,137.113,184.771,130.737,178.997,130.737z M181.228,135.153h-4.685c0,0,0.306-2.264,2.51-2.264
		C181.255,132.889,181.228,135.153,181.228,135.153z M181.813,127.865h-5.884v1.81h5.884V127.865z"/>
	<path fill="#FFFFFF" d="M170.283,156.707c0,0,2.176-0.167,2.176-2.795s-1.78-3.911-4.036-3.911H161v14.689h7.422
		c0,0,4.531,0.147,4.531-4.336C172.954,160.354,173.151,156.707,170.283,156.707z M164.271,152.61h4.151c0,0,1.009,0,1.009,1.529
		c0,1.528-0.593,1.75-1.266,1.75h-3.895V152.61z M168.213,162.079h-3.942v-3.925h4.151c0,0,1.504-0.021,1.504,2.017
		C169.926,161.888,168.803,162.065,168.213,162.079z M178.997,153.737c-5.485,0-5.481,5.644-5.481,5.644s-0.376,5.615,5.481,5.615
		c0,0,4.88,0.288,4.88-3.906h-2.51c0,0,0.083,1.58-2.287,1.58c0,0-2.511,0.173-2.511-2.556h7.392
		C183.961,160.114,184.771,153.737,178.997,153.737z M181.228,158.153h-4.685c0,0,0.306-2.264,2.51-2.264
		C181.255,155.889,181.228,158.153,181.228,158.153z M181.813,150.865h-5.884v1.81h5.884V150.865z"/>
	<path fill="#989898" d="M193.899,138.211c-0.607,3.167-1.35,6.202-3.548,7.788c-0.679-4.786,0.996-8.38,1.774-12.196
		c-1.326-2.218,0.159-6.684,2.956-5.583c3.441,1.354-2.98,8.248,1.331,9.11c4.501,0.899,6.338-7.762,3.548-10.58
		c-4.033-4.067-11.738-0.092-10.791,5.731c0.229,1.423,1.71,1.855,0.591,3.82c-2.581-0.569-3.351-2.592-3.251-5.29
		c0.16-4.415,3.991-7.507,7.834-7.935c4.861-0.541,9.421,1.774,10.052,6.318c0.71,5.129-2.193,10.685-7.392,10.285
		C195.594,139.572,195.003,138.878,193.899,138.211z"/>
	<path fill="#FFFFFF" d="M193.9,161.212c-0.607,3.167-1.351,6.202-3.548,7.788c-0.679-4.786,0.996-8.38,1.773-12.196
		c-1.326-2.219,0.16-6.684,2.957-5.583c3.44,1.354-2.98,8.249,1.33,9.11c4.501,0.899,6.337-7.763,3.548-10.58
		c-4.032-4.067-11.738-0.092-10.791,5.731c0.229,1.424,1.71,1.855,0.591,3.82c-2.58-0.569-3.351-2.592-3.252-5.29
		c0.16-4.415,3.991-7.507,7.834-7.935c4.861-0.541,9.421,1.774,10.052,6.318c0.71,5.13-2.193,10.686-7.391,10.286
		C195.594,162.573,195.003,161.879,193.9,161.212z"/>
	<path fill="#989898" d="M222.475,136.178c-0.897,0-1.626,1.033-1.626,2.307c0,1.275,0.729,2.308,1.626,2.308
		c0.896,0,1.624-1.033,1.624-2.308C224.099,137.211,223.371,136.178,222.475,136.178z M228.132,130.175
		c0.185-0.469,0.194-3.129-0.792-5.675c0,0-2.265,0.254-5.69,2.665c-0.718-0.203-1.935-0.304-3.148-0.304s-2.432,0.101-3.149,0.304
		c-3.426-2.411-5.688-2.665-5.688-2.665c-0.987,2.546-0.979,5.207-0.793,5.675c-1.159,1.291-1.868,2.842-1.868,4.961
		c0,9.212,7.452,9.361,9.334,9.361c0.426,0,1.271,0.001,2.166,0.002c0.895-0.001,1.741-0.002,2.166-0.002
		c1.882,0,9.334-0.148,9.334-9.361C230,133.017,229.291,131.466,228.132,130.175z M218.535,143.365h-0.07
		c-4.715,0-8.387-0.578-8.387-5.277c0-1.125,0.388-2.17,1.308-3.038c1.535-1.445,4.132-0.68,7.079-0.68c0.012,0,0.022,0,0.035-0.001
		c0.012,0.001,0.022,0.001,0.035,0.001c2.946,0,5.545-0.765,7.078,0.68c0.921,0.867,1.309,1.912,1.309,3.038
		C226.922,142.787,223.25,143.365,218.535,143.365z M214.525,136.178c-0.896,0-1.624,1.033-1.624,2.307
		c0,1.275,0.729,2.308,1.624,2.308c0.898,0,1.626-1.033,1.626-2.308C216.151,137.211,215.424,136.178,214.525,136.178z"/>
	<path fill="#FFFFFF" d="M222.475,159.179c-0.897,0-1.626,1.033-1.626,2.307c0,1.275,0.729,2.308,1.626,2.308
		c0.896,0,1.624-1.033,1.624-2.308S223.371,159.179,222.475,159.179z M228.132,153.175c0.185-0.469,0.194-3.129-0.792-5.675
		c0,0-2.265,0.254-5.69,2.665c-0.718-0.203-1.935-0.304-3.148-0.304s-2.432,0.101-3.149,0.304c-3.426-2.411-5.688-2.665-5.688-2.665
		c-0.987,2.546-0.979,5.207-0.793,5.675c-1.159,1.291-1.868,2.842-1.868,4.962c0,9.212,7.452,9.361,9.334,9.361
		c0.426,0,1.271,0.001,2.166,0.002c0.895-0.001,1.741-0.002,2.166-0.002c1.882,0,9.334-0.148,9.334-9.361
		C230,156.018,229.291,154.466,228.132,153.175z M218.535,166.365h-0.07c-4.715,0-8.387-0.578-8.387-5.277
		c0-1.125,0.388-2.17,1.308-3.038c1.535-1.445,4.132-0.68,7.079-0.68c0.012,0,0.022,0,0.035-0.001
		c0.012,0.001,0.022,0.001,0.035,0.001c2.946,0,5.545-0.765,7.078,0.68c0.921,0.867,1.309,1.912,1.309,3.038
		C226.922,165.788,223.25,166.365,218.535,166.365z M214.525,159.179c-0.896,0-1.624,1.033-1.624,2.307
		c0,1.275,0.729,2.308,1.624,2.308c0.898,0,1.626-1.033,1.626-2.308S215.424,159.179,214.525,159.179z"/>
	<g>
		<g>
			<path fill="#FFFFFF" d="M237.587,154.874c-0.142-0.142-0.334-0.223-0.534-0.222c-0.198,0.001-0.393,0.08-0.534,0.221
				l-1.795,1.798c-0.295,0.295-0.296,0.774,0,1.07l6.076,6.107c0.121,0.122,0.278,0.198,0.447,0.216
				c0.027,0.004,0.057,0.006,0.086,0.006c0.002,0,0.004,0,0.006,0h0.001c0.202,0,0.395-0.08,0.539-0.223l10.899-10.936
				c0.296-0.295,0.296-0.773,0.001-1.07l-1.793-1.8c-0.145-0.144-0.332-0.223-0.533-0.222c-0.202,0-0.393,0.079-0.535,0.222
				l-8.578,8.605L237.587,154.874z M252.106,155.546l-9.232,9.263c-0.399,0.396-0.928,0.614-1.488,0.614h-0.409l-0.086-0.058
				c-0.377-0.09-0.725-0.284-0.999-0.561l-6.075-6.104c-0.397-0.398-0.616-0.928-0.616-1.492s0.22-1.094,0.616-1.492l1.8-1.801
				c0.39-0.39,0.93-0.613,1.485-0.615c0.554,0,1.096,0.227,1.486,0.62l2.8,2.813l5.95-5.969l-3.962-3.974
				c-1.05-1.052-2.767-1.052-3.814,0l-8.773,8.798c-1.049,1.052-1.049,2.773,0,3.825l8.773,8.798c1.049,1.052,2.766,1.052,3.814,0
				l8.772-8.798c1.049-1.052,1.049-2.773,0-3.825L252.106,155.546z"/>
		</g>
	</g>
	<g>
		<g>
			<path fill="#989898" d="M237.587,131.874c-0.142-0.142-0.334-0.223-0.534-0.222c-0.198,0.001-0.393,0.08-0.534,0.221
				l-1.795,1.798c-0.295,0.295-0.296,0.774,0,1.07l6.076,6.107c0.121,0.122,0.278,0.198,0.447,0.216
				c0.027,0.004,0.057,0.006,0.086,0.006c0.002,0,0.004,0,0.006,0h0.001c0.202,0,0.395-0.08,0.539-0.223l10.899-10.936
				c0.296-0.295,0.296-0.773,0.001-1.07l-1.793-1.8c-0.145-0.144-0.332-0.223-0.533-0.222c-0.202,0-0.393,0.079-0.535,0.222
				l-8.578,8.604L237.587,131.874z M252.106,132.546l-9.232,9.262c-0.399,0.396-0.928,0.614-1.488,0.614h-0.409l-0.086-0.058
				c-0.377-0.09-0.725-0.284-0.999-0.562l-6.075-6.104c-0.397-0.398-0.616-0.928-0.616-1.492s0.22-1.094,0.616-1.492l1.8-1.8
				c0.39-0.39,0.93-0.613,1.485-0.615c0.554,0,1.096,0.227,1.486,0.62l2.8,2.813l5.95-5.968l-3.962-3.974
				c-1.05-1.052-2.767-1.052-3.814,0l-8.773,8.798c-1.049,1.052-1.049,2.773,0,3.825l8.773,8.798c1.049,1.052,2.766,1.052,3.814,0
				l8.772-8.798c1.049-1.052,1.049-2.773,0-3.825L252.106,132.546z"/>
		</g>
	</g>
	<path fill="#989898" d="M271.453,134.5c0,3.841-3.113,6.954-6.953,6.954c-3.841,0-6.953-3.113-6.953-6.954
		c0-0.458,0.045-0.904,0.129-1.337H253v9.244c0,1.985,1.606,3.594,3.594,3.594h15.813c1.983,0,3.595-1.609,3.595-3.594v-9.244
		h-4.678C271.408,133.595,271.453,134.042,271.453,134.5z M272.406,123h-15.813c-1.986,0-3.594,1.609-3.594,3.594v3.894h5.82
		c1.261-1.779,3.333-2.942,5.68-2.942c2.346,0,4.419,1.163,5.678,2.942H276v-3.894C276,124.609,274.39,123,272.406,123z
		 M274.163,127.439c0,0.354-0.288,0.642-0.643,0.642h-1.926c-0.353,0-0.643-0.289-0.643-0.642v-1.925
		c0-0.354,0.29-0.642,0.643-0.642h1.926c0.354,0,0.643,0.289,0.643,0.642V127.439z M268.779,134.5c0-2.363-1.916-4.279-4.278-4.279
		c-2.363,0-4.279,1.916-4.279,4.279s1.916,4.279,4.279,4.279C266.863,138.779,268.779,136.863,268.779,134.5z"/>
	<path fill="#FFFFFF" d="M271.453,157.5c0,3.841-3.113,6.954-6.953,6.954c-3.841,0-6.953-3.113-6.953-6.954
		c0-0.458,0.045-0.904,0.129-1.337H253v9.244c0,1.985,1.606,3.594,3.594,3.594h15.813c1.983,0,3.595-1.609,3.595-3.594v-9.244
		h-4.678C271.408,156.595,271.453,157.042,271.453,157.5z M272.406,146h-15.813c-1.986,0-3.594,1.609-3.594,3.594v3.894h5.82
		c1.261-1.779,3.333-2.942,5.68-2.942c2.346,0,4.419,1.163,5.678,2.942H276v-3.894C276,147.609,274.39,146,272.406,146z
		 M274.163,150.439c0,0.354-0.288,0.642-0.643,0.642h-1.926c-0.353,0-0.643-0.289-0.643-0.642v-1.925
		c0-0.354,0.29-0.642,0.643-0.642h1.926c0.354,0,0.643,0.289,0.643,0.642V150.439z M268.779,157.5c0-2.363-1.916-4.279-4.278-4.279
		c-2.363,0-4.279,1.916-4.279,4.279s1.916,4.279,4.279,4.279C266.863,161.779,268.779,159.863,268.779,157.5z"/>
	<polygon fill="#212121" points="51,5.5 56,10.5 61,5.5 	"/>
	<polygon fill="#FFFFFF" points="67,5.5 72,10.5 77,5.5 	"/>
	<polygon fill="#2D2D2D" points="80,4 88,12 96,4 	"/>
	<polygon fill="#494849" points="112,12 104,4 96,12 	"/>
	<path fill="#FFFFFF" d="M102.083,48.005h20.833c1.15,0,2.083,0.933,2.083,2.083v20.833c0,1.151-0.934,2.083-2.083,2.083h-20.833
		c-1.151,0-2.083-0.933-2.083-2.083V50.089C100,48.938,100.933,48.005,102.083,48.005z"/>
	<path fill="#FFFFFF" d="M102.083,73h20.833c1.15,0,2.083,0.933,2.083,2.083v20.833c0,1.151-0.934,2.083-2.083,2.083h-20.833
		c-1.151,0-2.083-0.933-2.083-2.083V75.084C100,73.933,100.933,73,102.083,73z"/>
	<g>
		<path fill="#2D2D2D" d="M120.5,92.045l-1.455,1.455L104.5,78.955l1.454-1.455L120.5,92.045z"/>
		<path fill="#2D2D2D" d="M105.955,93.5l-1.455-1.455L119.045,77.5l1.455,1.455L105.955,93.5z"/>
	</g>
	<g id="twitter_1_">
		<path fill="#CCCCCC" d="M128,2.957c-0.589,0.265-1.223,0.444-1.888,0.525c0.68-0.412,1.198-1.067,1.445-1.846
			c-0.635,0.383-1.338,0.66-2.085,0.81c-0.6-0.649-1.452-1.054-2.396-1.054c-1.813,0-3.282,1.495-3.282,3.338
			c0,0.261,0.029,0.515,0.085,0.76c-2.729-0.14-5.147-1.466-6.767-3.486c-0.283,0.492-0.444,1.065-0.444,1.677
			c0,1.157,0.58,2.178,1.46,2.777c-0.537-0.018-1.043-0.167-1.487-0.418c0,0.014,0,0.027,0,0.042c0,1.616,1.132,2.964,2.633,3.271
			C115,9.43,114.709,9.469,114.41,9.469c-0.211,0-0.416-0.02-0.617-0.06c0.417,1.326,1.63,2.291,3.064,2.316
			c-1.123,0.896-2.538,1.429-4.075,1.429c-0.265,0-0.526-0.014-0.783-0.047c1.453,0.947,3.178,1.5,5.031,1.5
			c6.038,0,9.341-5.084,9.341-9.492c0-0.146-0.003-0.289-0.01-0.432C127.003,4.214,127.56,3.626,128,2.957"/>
	</g>
	<g id="facebook_1_">
		<path fill="#CCCCCC" d="M140.522,2.782h-2.583c-0.305,0-0.646,0.395-0.646,0.924v1.833h3.229v2.612h-3.229V16h-3.05V8.151h-2.766
			V5.539h2.766V4c0-2.205,1.557-4,3.694-4h2.583L140.522,2.782L140.522,2.782z"/>
	</g>
	<g id="vine_1_">
		<path fill="#CCCCCC" d="M159.92,4.202c-0.896,5.27-5.891,9.732-7.394,10.751c-1.5,1.02-2.872-0.408-3.368-1.488
			c-0.568-1.23-2.273-7.902-2.723-8.455c-0.448-0.553-1.786,0.553-1.786,0.553L144,4.672c0,0,2.721-3.403,4.792-3.828
			c2.196-0.45,2.192,3.528,2.721,5.738c0.512,2.136,0.854,3.358,1.3,3.358c0.448,0,1.301-1.191,2.233-3.019
			c0.938-1.828-0.04-3.444-1.867-2.294C153.909,0.037,160.814-1.066,159.92,4.202"/>
	</g>
	<g>
		<g>
			<path fill="#CCCCCC" d="M165.458,3.593c-0.112-0.205-0.28-0.433-0.624-0.433h-2.24c-0.135,0-0.248,0.049-0.305,0.144
				c-0.061,0.099-0.052,0.226,0.013,0.354l1.515,2.701c0.002,0.005,0.002,0.009,0,0.013l-2.381,4.327
				c-0.062,0.127-0.059,0.255,0,0.354c0.06,0.095,0.158,0.157,0.293,0.157h2.24c0.335,0,0.496-0.233,0.611-0.446
				c0,0,2.325-4.241,2.418-4.405C166.989,6.343,165.458,3.593,165.458,3.593z M174.561,0.504c0.063-0.127,0.063-0.258,0.004-0.356
				C174.508,0.053,174.403,0,174.268,0h-2.264c-0.334,0-0.479,0.217-0.601,0.439c0,0-4.824,8.815-4.983,9.105
				c0.009,0.016,3.184,6.016,3.184,6.016c0.11,0.205,0.281,0.439,0.625,0.439h2.237c0.135,0,0.241-0.052,0.298-0.148
				c0.061-0.098,0.058-0.228-0.006-0.356l-3.156-5.944c-0.004-0.004-0.004-0.01,0-0.015L174.561,0.504z"/>
		</g>
	</g>
	<path fill="#CCCCCC" d="M190.957,8.506c0,0.573,0,1.147,0,1.72c-0.579,0-1.159,0-1.739,0c-0.629,2.053-3.064,5.543-5.465,5.773
		c-4.185-2.139-6.586-7.377-6.709-13.512c0.787,0.041,1.574,0.082,2.358,0.123c-0.115,4.92,1.759,9.001,4.599,11.055
		c1.252-0.912,2.833-2.607,3.104-4.422c-2.146-1.098-4.848-6.409-1.738-8.476c4.062-2.702,6.392,2.318,5.218,5.896
		c-0.746,0-1.491,0-2.236,0c0-0.124,0-0.247,0-0.369c0.346-0.936,0.547-3.255-0.249-3.808c-0.616-0.376-1.278-0.219-1.614,0.369
		C184.989,5.681,188.284,8.558,190.957,8.506z"/>
	<path fill="#CCCCCC" d="M192.848,3.99c0,1.358,0.445,2.338,1.324,2.914c0.719,0.472,1.554,0.542,1.986,0.542
		c0.105,0,0.189-0.004,0.25-0.008c0,0-0.14,0.912,0.524,1.815h-0.029c-1.149,0-4.903,0.245-4.903,3.387
		c0,3.197,3.446,3.359,4.139,3.359c0.055,0,0.086-0.001,0.086-0.001c0.008,0,0.057,0.002,0.142,0.002
		c0.443,0,1.592-0.057,2.656-0.584c1.382-0.683,2.083-1.872,2.083-3.532c0-1.604-1.067-2.56-1.847-3.257
		c-0.478-0.425-0.887-0.792-0.887-1.149c0-0.364,0.3-0.638,0.68-0.983c0.615-0.561,1.195-1.358,1.195-2.865
		c0-1.325-0.17-2.214-1.209-2.778c0.107-0.057,0.491-0.098,0.682-0.125c0.563-0.078,1.386-0.167,1.386-0.635V0H197
		C196.959,0.001,192.848,0.156,192.848,3.99z M199.476,12.183c0.079,1.279-0.995,2.222-2.607,2.342
		c-1.639,0.122-2.986-0.629-3.064-1.906c-0.038-0.613,0.227-1.215,0.746-1.694c0.525-0.485,1.248-0.784,2.033-0.843
		c0.093-0.006,0.186-0.01,0.276-0.01C198.375,10.071,199.403,10.979,199.476,12.183z M198.405,3.115
		c0.402,1.442-0.205,2.951-1.175,3.229c-0.11,0.032-0.228,0.048-0.343,0.048c-0.889,0-1.769-0.915-2.094-2.174
		c-0.184-0.708-0.168-1.327,0.041-1.922c0.205-0.585,0.574-0.98,1.039-1.113c0.11-0.032,0.227-0.048,0.343-0.048
		C197.288,1.134,197.977,1.586,198.405,3.115z M205.322,6.256V3.529h-1.696v2.727h-2.678v1.727h2.678v2.727h1.696V7.983H208V6.256
		H205.322z"/>
	<g>
		<path fill="#CCCCCC" d="M211.623,1.735c0,0.958-0.697,1.734-1.847,1.734c-1.08,0-1.776-0.776-1.776-1.734
			C208,0.753,208.721,0,209.822,0C210.926,0,211.6,0.753,211.623,1.735z M208.09,16V4.839h3.42V16H208.09z"/>
		<path fill="#CCCCCC" d="M213.557,8.399c0-1.392-0.045-2.556-0.088-3.56h2.969l0.158,1.552h0.068
			c0.448-0.731,1.553-1.804,3.397-1.804c2.25,0,3.938,1.529,3.938,4.816V16h-3.422V9.814c0-1.438-0.494-2.419-1.732-2.419
			c-0.945,0-1.508,0.661-1.754,1.301c-0.092,0.228-0.113,0.548-0.113,0.867V16h-3.422V8.399z"/>
	</g>
	<path fill="#CCCCCC" d="M230.457,7.448c0,0,1.514-0.116,1.514-1.944c0-1.829-1.238-2.721-2.807-2.721H224v10.219h5.164
		c0,0,3.149,0.102,3.149-3.017C232.314,9.985,232.453,7.448,230.457,7.448z M226.275,4.599h2.89c0,0,0.701,0,0.701,1.064
		c0,1.063-0.412,1.217-0.882,1.217h-2.709V4.599L226.275,4.599z M229.018,11.185h-2.742v-2.73h2.89c0,0,1.045-0.014,1.045,1.403
		C230.209,11.053,229.428,11.176,229.018,11.185z M236.52,5.382c-3.815,0-3.813,3.926-3.813,3.926s-0.263,3.906,3.813,3.906
		c0,0,3.396,0.2,3.396-2.717h-1.746c0,0,0.059,1.099-1.59,1.099c0,0-1.746,0.12-1.746-1.778h5.141
		C239.973,9.818,240.535,5.382,236.52,5.382z M238.07,8.455h-3.258c0,0,0.213-1.575,1.746-1.575
		C238.09,6.879,238.07,8.455,238.07,8.455z M238.479,3.384h-4.094v1.259h4.094V3.384z"/>
	<path fill="#CCCCCC" d="M246.887,10.582c-0.424,2.203-0.939,4.315-2.469,5.418c-0.474-3.33,0.692-5.83,1.233-8.484
		c-0.922-1.543,0.111-4.649,2.058-3.884c2.395,0.941-2.074,5.738,0.926,6.337c3.131,0.625,4.408-5.4,2.467-7.36
		c-2.805-2.829-8.164-0.064-7.506,3.987c0.16,0.99,1.189,1.291,0.41,2.657c-1.795-0.396-2.33-1.803-2.262-3.68
		c0.11-3.071,2.776-5.222,5.45-5.52c3.382-0.376,6.554,1.234,6.992,4.395c0.494,3.568-1.526,7.433-5.143,7.155
		C248.064,11.529,247.654,11.046,246.887,10.582z"/>
	<path fill="#CCCCCC" d="M266.766,9.168c-0.625,0-1.133,0.718-1.133,1.604c0,0.887,0.508,1.605,1.133,1.605
		c0.623,0,1.129-0.719,1.129-1.605S267.389,9.168,266.766,9.168z M270.699,4.992c0.129-0.326,0.137-2.177-0.552-3.948
		c0,0-1.573,0.177-3.957,1.854c-0.5-0.142-1.346-0.212-2.19-0.212c-0.846,0-1.691,0.07-2.191,0.212
		c-2.383-1.677-3.957-1.854-3.957-1.854c-0.688,1.771-0.68,3.622-0.553,3.948C256.492,5.89,256,6.969,256,8.443
		c0,6.409,5.184,6.512,6.492,6.512c0.297,0,0.885,0.001,1.508,0.001c0.621,0,1.211-0.001,1.506-0.001
		c1.311,0,6.494-0.103,6.494-6.512C272,6.969,271.506,5.89,270.699,4.992z M264.023,14.167h-0.049c-3.279,0-5.834-0.402-5.834-3.671
		c0-0.783,0.271-1.51,0.91-2.113c1.068-1.005,2.875-0.473,4.924-0.473c0.01,0,0.019,0,0.025-0.001
		c0.008,0.001,0.016,0.001,0.022,0.001c2.051,0,3.857-0.532,4.926,0.473c0.64,0.603,0.91,1.33,0.91,2.113
		C269.859,13.765,267.305,14.167,264.023,14.167z M261.234,9.168c-0.623,0-1.129,0.718-1.129,1.604c0,0.887,0.506,1.605,1.129,1.605
		c0.625,0,1.132-0.719,1.132-1.605C262.365,9.886,261.859,9.168,261.234,9.168z"/>
	<g>
		<g>
			<path fill="#CCCCCC" d="M277.277,6.173c-0.098-0.099-0.231-0.155-0.371-0.155c-0.139,0.001-0.272,0.056-0.37,0.154l-1.25,1.251
				c-0.205,0.206-0.205,0.539,0,0.744l4.227,4.248c0.086,0.085,0.195,0.138,0.313,0.151c0.02,0.003,0.038,0.004,0.059,0.004
				c0.002,0,0.004,0,0.004,0h0.002c0.141,0,0.273-0.056,0.375-0.155l7.582-7.607c0.205-0.205,0.205-0.538,0.002-0.744L286.6,2.812
				c-0.1-0.1-0.229-0.155-0.371-0.155c-0.141,0-0.272,0.055-0.373,0.154l-5.967,5.986L277.277,6.173z M287.379,6.641l-6.424,6.443
				c-0.277,0.275-0.646,0.427-1.035,0.427h-0.285l-0.062-0.041c-0.262-0.063-0.504-0.197-0.692-0.39l-4.228-4.247
				c-0.276-0.277-0.43-0.646-0.43-1.038c0-0.393,0.152-0.761,0.43-1.038l1.252-1.252c0.271-0.271,0.646-0.427,1.033-0.428
				c0.386,0,0.763,0.158,1.033,0.431l1.949,1.957l4.139-4.152l-2.756-2.765c-0.73-0.732-1.924-0.732-2.654,0l-6.104,6.12
				c-0.729,0.732-0.729,1.929,0,2.661l6.104,6.121c0.73,0.732,1.925,0.732,2.654,0l6.104-6.121c0.729-0.732,0.729-1.929,0-2.661
				L287.379,6.641z"/>
		</g>
	</g>
	<path fill="#CCCCCC" d="M300.836,8c0,2.672-2.164,4.837-4.836,4.837s-4.838-2.166-4.838-4.837c0-0.318,0.03-0.629,0.09-0.93H288
		v6.43c0,1.381,1.117,2.5,2.5,2.5h11c1.379,0,2.5-1.119,2.5-2.5V7.07h-3.255C300.805,7.371,300.836,7.682,300.836,8z M301.5,0h-11
		c-1.383,0-2.5,1.12-2.5,2.5v2.709h4.049c0.877-1.238,2.318-2.046,3.951-2.046c1.631,0,3.073,0.809,3.948,2.046H304V2.5
		C304,1.12,302.879,0,301.5,0z M302.723,3.089c0,0.246-0.201,0.446-0.447,0.446h-1.34c-0.244,0-0.447-0.201-0.447-0.446V1.75
		c0-0.246,0.203-0.447,0.447-0.447h1.34c0.246,0,0.447,0.201,0.447,0.447V3.089z M298.977,8c0-1.644-1.332-2.977-2.977-2.977
		c-1.646,0-2.978,1.333-2.978,2.977s1.332,2.977,2.978,2.977C297.645,10.977,298.977,9.644,298.977,8z"/>
	<g>
		<g>
			<path fill="#CCCCCC" d="M312,0c-4.419,0-8,3.582-8,8s3.581,8,8,8c4.418,0,8-3.582,8-8C320,3.583,316.418,0,312,0z M312,14.261
				c-3.457,0-6.262-2.803-6.262-6.261s2.805-6.26,6.262-6.26s6.261,2.803,6.261,6.261S315.457,14.261,312,14.261z M312.609,3.479
				h-1.219v4.774l2.962,2.96l0.86-0.86l-2.604-2.604L312.609,3.479L312.609,3.479z"/>
		</g>
	</g>
	<g id="twitter_2_">
		<path fill="#2D2D2D" d="M299,127.25c-0.848,0.381-1.756,0.639-2.711,0.755c0.976-0.593,1.723-1.534,2.075-2.653
			c-0.911,0.551-1.923,0.949-2.995,1.164c-0.863-0.934-2.089-1.516-3.445-1.516c-2.605,0-4.718,2.148-4.718,4.798
			c0,0.375,0.041,0.74,0.122,1.093c-3.921-0.201-7.399-2.107-9.727-5.012c-0.408,0.707-0.641,1.531-0.641,2.411
			c0,1.663,0.833,3.131,2.1,3.992c-0.771-0.025-1.5-0.239-2.138-0.601c-0.001,0.02-0.001,0.039-0.001,0.06
			c0,2.323,1.627,4.261,3.785,4.702c-0.396,0.111-0.813,0.168-1.243,0.168c-0.304,0-0.598-0.029-0.887-0.086
			c0.6,1.906,2.343,3.293,4.405,3.33c-1.612,1.287-3.647,2.055-5.858,2.055c-0.379,0-0.757-0.021-1.125-0.068
			c2.088,1.361,4.567,2.156,7.233,2.156c8.679,0,13.427-7.309,13.427-13.645c0-0.209-0.006-0.416-0.015-0.621
			C297.567,129.057,298.366,128.212,299,127.25"/>
	</g>
	<g id="facebook_2_">
		<path fill="#2D2D2D" d="M317,126.999h-3.714c-0.438,0-0.928,0.567-0.928,1.328v2.635H317v3.755h-4.642V146h-4.384v-11.283H304
			v-3.755h3.976v-2.212c0-3.17,2.237-5.75,5.312-5.75H317V126.999z"/>
	</g>
	<path fill="#2D2D2D" d="M323.221,128.735c0,1.952,0.64,3.361,1.901,4.189c1.033,0.678,2.232,0.779,2.855,0.779
		c0.152,0,0.273-0.006,0.358-0.012c0,0-0.198,1.311,0.757,2.608l-0.043-0.001c-1.654,0-7.052,0.353-7.052,4.87
		c0,4.596,4.955,4.83,5.949,4.83c0.078,0,0.125-0.002,0.125-0.002c0.011,0,0.082,0.003,0.202,0.003c0.638,0,2.287-0.081,3.819-0.84
		c1.985-0.981,2.994-2.69,2.994-5.078c0-2.307-1.535-3.679-2.656-4.682c-0.685-0.611-1.275-1.14-1.275-1.652
		c0-0.523,0.433-0.917,0.979-1.414c0.883-0.806,1.717-1.951,1.717-4.119c0-1.904-0.242-3.183-1.736-3.993
		c0.155-0.082,0.706-0.141,0.979-0.18c0.81-0.112,1.994-0.24,1.994-0.913V123h-5.901
		C329.129,123.001,323.221,123.225,323.221,128.735z M332.746,140.513c0.112,1.839-1.431,3.195-3.749,3.367
		c-2.354,0.174-4.293-0.904-4.405-2.74c-0.056-0.883,0.326-1.748,1.071-2.436c0.757-0.697,1.796-1.127,2.925-1.213
		c0.133-0.008,0.266-0.014,0.396-0.014C331.163,137.478,332.641,138.782,332.746,140.513z M331.205,127.477
		c0.579,2.075-0.296,4.243-1.688,4.642c-0.16,0.046-0.326,0.069-0.493,0.069c-1.276,0-2.542-1.314-3.009-3.126
		c-0.263-1.018-0.241-1.908,0.059-2.763c0.295-0.841,0.826-1.408,1.493-1.6c0.16-0.047,0.326-0.07,0.493-0.07
		C329.602,124.629,330.592,125.28,331.205,127.477z M341.15,131.994v-3.921h-2.438v3.921h-3.851v2.482h3.851v3.921h2.438v-3.921H345
		v-2.482H341.15z"/>
	<g>
		<path fill="#2D2D2D" d="M281.208,148.494c0,1.378-1.003,2.493-2.653,2.493c-1.552,0-2.555-1.115-2.555-2.493
			c0-1.411,1.035-2.493,2.62-2.493S281.176,147.083,281.208,148.494z M276.129,169v-16.044h4.918V169H276.129z"/>
		<path fill="#2D2D2D" d="M283.989,158.073c0-2-0.063-3.673-0.129-5.117h4.271l0.228,2.231h0.097
			c0.646-1.051,2.231-2.593,4.886-2.593c3.235,0,5.661,2.199,5.661,6.923V169h-4.918v-8.892c0-2.066-0.711-3.478-2.49-3.478
			c-1.359,0-2.167,0.95-2.523,1.87c-0.129,0.328-0.161,0.787-0.161,1.246V169h-4.917v-10.927H283.989z"/>
	</g>
	<g>
		<g>
			<path fill="#2D2D2D" d="M306.847,151.164c-0.161-0.294-0.403-0.622-0.897-0.622h-3.219c-0.195,0-0.357,0.07-0.439,0.207
				c-0.086,0.143-0.071,0.324,0.02,0.509l2.177,3.883c0.004,0.008,0.004,0.013,0,0.019l-3.422,6.22
				c-0.088,0.184-0.084,0.367,0,0.509c0.083,0.137,0.229,0.226,0.421,0.226h3.221c0.481,0,0.714-0.334,0.879-0.641
				c0,0,3.346-6.096,3.476-6.332C309.047,155.118,306.847,151.164,306.847,151.164z M319.932,146.724
				c0.089-0.183,0.091-0.37,0.006-0.512c-0.082-0.137-0.234-0.212-0.428-0.212h-3.253c-0.481,0-0.688,0.313-0.862,0.632
				c0,0-6.938,12.672-7.165,13.089c0.013,0.022,4.575,8.646,4.575,8.646c0.16,0.295,0.406,0.633,0.899,0.633h3.216
				c0.193,0,0.346-0.076,0.428-0.213c0.086-0.142,0.084-0.328-0.007-0.512l-4.538-8.545c-0.006-0.006-0.006-0.015,0-0.021
				L319.932,146.724z"/>
		</g>
	</g>
	<path fill="#2D2D2D" d="M343.5,158.228c0,0.823,0,1.648,0,2.473c-0.834,0-1.668,0-2.5,0c-0.903,2.951-4.405,7.969-7.857,8.3
		c-6.012-3.075-9.466-10.605-9.643-19.424c1.131,0.059,2.262,0.117,3.393,0.176c-0.168,7.073,2.525,12.939,6.607,15.893
		c1.799-1.312,4.072-3.748,4.465-6.357c-3.084-1.578-6.969-9.213-2.5-12.184c5.838-3.884,9.188,3.333,7.5,8.477
		c-1.072,0-2.144,0-3.215,0c0-0.178,0-0.354,0-0.53c0.497-1.345,0.784-4.68-0.357-5.474c-0.886-0.541-1.838-0.316-2.32,0.529
		C334.921,154.166,339.656,158.301,343.5,158.228z"/>
	<path fill="#AAAAAA" d="M35.368,101.965c-0.591-0.62-1.71-0.62-2.358,0c-0.649,0.682-0.708,1.612,0,2.479l5.481,6.075l-5.481,6.013
		c-0.708,0.867-0.649,1.798,0,2.479c0.648,0.682,1.769,0.62,2.358,0c0.647-0.682,6.659-7.314,6.659-7.314
		c0.294-0.311,0.473-0.744,0.473-1.178c0-0.496-0.179-0.93-0.473-1.24C42.028,109.279,36.016,102.646,35.368,101.965z"/>
	<path fill="#FFFFFF" d="M60.368,101.965c-0.591-0.62-1.71-0.62-2.358,0c-0.649,0.682-0.708,1.612,0,2.479l5.481,6.075l-5.481,6.013
		c-0.708,0.867-0.649,1.798,0,2.479c0.648,0.682,1.769,0.62,2.358,0c0.647-0.682,6.659-7.314,6.659-7.314
		c0.294-0.311,0.473-0.744,0.473-1.178c0-0.496-0.179-0.93-0.473-1.24C67.028,109.279,61.016,102.646,60.368,101.965z"/>
	<g>
		<path fill="#FFFFFF" d="M14.372,178.604l-2.389-2.387c-0.654-0.652-1.728-0.652-2.384,0c-0.657,0.658-0.657,1.735,0,2.387
			l2.384,2.386c0.657,0.66,1.732,0.66,2.389,0C15.027,180.336,15.027,179.262,14.372,178.604"/>
		<path fill="#FFFFFF" d="M5.563,193.126H2.186c-0.928,0-1.686,0.756-1.686,1.686c0,0.929,0.758,1.687,1.686,1.687h3.376
			c0.927,0,1.69-0.758,1.69-1.687S6.489,193.126,5.563,193.126"/>
		<path fill="#FFFFFF" d="M52.812,196.493h-3.377c-0.927,0-1.687,0.757-1.687,1.69c0,0.93,0.76,1.685,1.687,1.685h3.377
			c0.925,0,1.688-0.755,1.688-1.685C54.5,197.25,53.737,196.493,52.812,196.493"/>
		<path fill="#FFFFFF" d="M47.78,178.604c-0.656-0.652-1.731-0.652-2.388,0l-2.386,2.386c-0.655,0.66-0.655,1.732,0,2.387
			c0.657,0.657,1.73,0.657,2.386,0l2.388-2.387C48.435,180.336,48.435,179.262,47.78,178.604"/>
		<path fill="#FFFFFF" d="M29.184,176.258c0.465,0,0.888-0.192,1.195-0.5c0.303-0.305,0.496-0.726,0.496-1.193v-3.375
			c0-0.93-0.761-1.69-1.689-1.69c-0.696,0-1.297,0.431-1.554,1.036l-0.135,0.659l0.002,3.373
			C27.499,175.499,28.26,176.258,29.184,176.258"/>
		<path fill="#FFFFFF" d="M27.493,183.002c-7.458,0-13.506,6.043-13.506,13.5c0,4.983,2.734,9.289,6.754,11.626v5.248h13.504v-5.248
			c4.018-2.338,6.749-6.644,6.749-11.626C40.994,189.046,34.948,183.002,27.493,183.002 M32.545,205.214l-1.677,0.975v1.94V210
			h-6.751v-1.871v-1.94l-1.679-0.975c-3.178-1.852-5.072-5.107-5.072-8.711c0-5.584,4.542-10.125,10.127-10.125
			c5.587,0,10.127,4.541,10.127,10.125C37.62,200.107,35.721,203.362,32.545,205.214"/>
		<path fill="#FFFFFF" d="M20.741,220.126h3.475l-0.1,0.422c0,1.626,1.521,2.952,3.376,2.952c1.854,0,3.375-1.326,3.375-2.952
			l-0.102-0.422h3.479v-3.375H20.741V220.126z"/>
	</g>
	<g>
		<path fill="#FFFFFF" d="M105,185.572V177h-8.438v2.858H68.436V177H60v8.572h2.811v22.858H60V217h8.436v-2.857h28.126V217H105
			v-8.57h-2.813v-22.858H105L105,185.572z M99.376,179.858h2.811v2.859h-2.811V179.858z M62.811,179.858h2.813v2.859h-2.813V179.858
			z M62.811,211.285h2.813v2.857h-2.813V211.285z M102.187,214.143h-2.811v-2.857h2.811V214.143z M99.376,208.43h-2.814v2.855
			H68.436v-2.855h-2.812v-22.858h2.812v-2.854h28.126v2.854h2.814V208.43z"/>
	</g>
	<g>
		<path fill="#FFFFFF" d="M53.404,247.649l-12.151,4.949v-5.597c0-1.926-1.549-3.5-3.44-3.5H3.438c-1.889,0-3.438,1.574-3.438,3.5
			v21c0,1.924,1.548,3.498,3.438,3.498h34.374c1.892,0,3.44-1.574,3.44-3.498V262.4l12.151,4.949
			c0.879,0.355,1.597-0.139,1.597-1.103V248.75C55,247.788,54.282,247.296,53.404,247.649 M27.501,264.501h-3.438v-3.503h3.438
			V264.501z M34.375,264.501h-3.437v-3.503h3.437V264.501z M34.375,254.002H6.877v-3.5h27.499L34.375,254.002L34.375,254.002z
			 M27.501,237.951v2.05h6.874v-4.948l-5.451-5.553H3.438v7.005h22.64L27.501,237.951z"/>
	</g>
	<g>
		<path fill="#FFFFFF" d="M74.813,236.121c0-2.827-2.296-5.121-5.125-5.121c-2.833,0-5.126,2.294-5.126,5.121
			c0,2.833,2.294,5.126,5.126,5.126C72.517,241.247,74.813,238.954,74.813,236.121 M100.437,236.121
			c0-2.827-2.292-5.121-5.124-5.121c-2.833,0-5.128,2.294-5.128,5.121c0,2.833,2.295,5.126,5.128,5.126
			C98.145,241.247,100.437,238.954,100.437,236.121 M87.626,261.749c0-2.832-2.294-5.124-5.126-5.124s-5.125,2.292-5.125,5.124
			c0,2.827,2.292,5.124,5.125,5.124S87.626,264.576,87.626,261.749 M68.937,248.936l-1.811,1.813l7.248,7.245l1.811-1.813
			L68.937,248.936z M88.815,256.182l1.813,1.813l7.247-7.245l-1.813-1.813L88.815,256.182z M77.375,246.374
			c0-2.832-3.44-5.127-7.687-5.127c-4.248,0-7.688,2.295-7.688,5.127H77.375z M95.313,241.247c-4.246,0-7.687,2.295-7.687,5.127H103
			C103,243.542,99.556,241.247,95.313,241.247 M82.5,266.873c-4.244,0-7.687,2.294-7.687,5.124V272h15.371v-0.003
			C90.185,269.167,86.745,266.873,82.5,266.873"/>
	</g>
	<g>
		<path fill="#FFFFFF" d="M118,204.965L137.499,215v-12.751L118,192.216V204.965z M139.938,214.793L157,206.012v-13.796
			l-17.061,9.716L139.938,214.793z M152.123,187.514v0.572h-0.017c-0.08,0.9-2.218,1.622-4.858,1.622
			c-2.639,0-4.774-0.721-4.858-1.622h-0.014v-3.396v-0.105h0.029l-0.029,0.105c0,0.924,2.18,1.67,4.872,1.67s4.875-0.747,4.875-1.67
			c0-0.927-2.183-1.674-4.875-1.674c-1.515,0-2.851,0.241-3.746,0.617l-1.159-0.526c-0.139,0.882-2.244,1.583-4.844,1.583
			c-2.601,0-4.703-0.701-4.844-1.583l-1.157,0.526c-0.896-0.376-2.231-0.617-3.747-0.617c-2.693,0-4.874,0.748-4.874,1.674
			c0,0.924,2.181,1.67,4.874,1.67c2.691,0,4.873-0.747,4.873-1.67l-0.031-0.105h0.031v0.105v3.396h-0.013
			c-0.085,0.9-2.223,1.622-4.86,1.622c-2.642,0-4.777-0.721-4.858-1.622h-0.016v-0.572L118,189.708l19.499,10.033L157,189.708
			L152.123,187.514z M142.376,189.917v3.396h-0.019c-0.082,0.898-2.222,1.618-4.859,1.618s-4.776-0.72-4.859-1.618h-0.017v-3.396
			v-0.105h0.031l-0.031,0.105c0,0.922,2.185,1.669,4.875,1.669C140.187,191.586,142.376,190.838,142.376,189.917l-0.033-0.105h0.033
			V189.917z M137.499,181.343c2.69,0,4.877-0.745,4.877-1.668c0-0.927-2.188-1.674-4.877-1.674c-2.69,0-4.875,0.748-4.875,1.674
			C132.623,180.598,134.808,181.343,137.499,181.343"/>
	</g>
	<g>
		<path fill="#FFFFFF" d="M226,175l5.376,37.625L247.5,218l16.124-5.375L269,175H226z M260.399,185.746h-18.724l0.448,5.377h17.733
			l-1.607,16.126l-10.75,2.688l-10.752-2.688l-0.807-8.063h6.183l0.561,4.031l4.819,1.344l5.372-1.344l0.673-6.719h-17.876
			l-1.611-16.125h26.879L260.399,185.746z"/>
	</g>
	<g>
		<path fill="#FFFFFF" d="M114,254.441V275h20.562v-11.749l-8.81-8.81H114L114,254.441z M131.624,264.468v7.599h-14.688v-14.688h7.6
			l1.216,1.215v4.659h4.659L131.624,264.468z M114,228v20.563h20.562v-11.751l-8.81-8.812H114z M131.624,238.027v7.596h-14.688
			v-14.685h7.6l1.216,1.216v4.658h4.659L131.624,238.027z M152.187,228h-11.751v20.563H161v-11.751L152.187,228z M158.062,245.623
			h-14.688v-14.685h7.595l1.218,1.216v4.658h4.658l1.216,1.215L158.062,245.623L158.062,245.623z M140.436,254.441V275H161v-11.749
			l-8.813-8.81H140.436L140.436,254.441z M158.062,264.468v7.599h-14.688v-14.688h7.595l1.218,1.215v4.659h4.658L158.062,264.468z"
			/>
	</g>
	<g>
		<path fill="#FFFFFF" d="M180.75,233.873h-5.873v5.875h5.873V233.873z M186.625,228H169v17.622h17.625V228z M183.688,242.688
			h-11.75v-11.751h11.75V242.688z M210.123,233.873h-5.875v5.875h5.875V233.873z M198.376,245.622h17.622V228h-17.622V245.622z
			 M213.063,242.688h-11.748v-11.751h11.748V242.688z M174.877,269.127h5.873v-5.875h-5.873V269.127z M169.002,275h17.625v-17.626
			h-17.625V275z M171.938,260.311h11.75v11.75h-11.75V260.311z M189.563,260.311v2.941h2.938v5.875h2.936v-11.753h-2.936v2.937
			H189.563z M210.123,257.374h-2.935v2.937h2.935v5.877h-2.935v-5.877h-5.877v-5.873h2.937v2.938h2.94v-2.938h2.935v-2.938h-2.935
			v-2.936h-2.94v2.936h-2.937v-2.936h-5.876v-5.875H192.5v2.934h-2.938v2.941h2.938v5.873h5.875v14.69h2.937v2.937h-2.937V275h5.872
			v-2.938h2.94v-2.937h2.935v2.937h-2.567V275H216v-5.873h-2.938v-5.875H216v-2.941h-2.938v-5.873h-2.938V257.374z M204.248,266.188
			h-2.937v-2.936h2.937V266.188z M195.437,236.809V228h-5.873v2.938h2.938v2.936h-2.938v8.815h2.938v-5.88H195.437z
			 M177.813,251.499h2.937v-2.936h-2.937V251.499z M183.688,251.499h-2.938v2.938h5.875v-2.938h2.938v-2.936h-5.875L183.688,251.499
			L183.688,251.499z M210.123,251.499h2.938v2.938H216v-5.874h-5.877V251.499z M189.563,257.374h2.938v-2.938h-2.938V257.374z
			 M189.563,272.063h2.938v-2.936h-2.938V272.063z M195.437,272.063h-2.938V275h2.938V272.063z M174.877,248.563h-5.875v5.873h8.811
			v-2.938h-2.937L174.877,248.563L174.877,248.563z"/>
	</g>
	<g>
		<polygon fill="#FFFFFF" points="260.438,254.314 255.981,243.063 253.162,243.063 248.576,259.861 244.716,229 241.896,229 
			232.254,255.475 225,259.939 236.266,259.939 242.418,237.392 244.716,274 250.348,274 254.985,248.523 258.796,259.939 
			270,254.314 		"/>
	</g>
	<path fill="#212121" d="M357.5,169c15.187,0,27.5,12.313,27.5,27.5S372.687,224,357.5,224c-15.188,0-27.5-12.313-27.5-27.5
		S342.312,169,357.5,169z"/>
	<path fill="#FFFFFF" d="M356.73,186.065c-0.754-0.758-2.19-0.758-3.021,0c-0.831,0.833-0.906,1.971,0,3.032l7.023,7.426
		l-7.023,7.352c-0.906,1.061-0.831,2.198,0,3.031c0.829,0.834,2.267,0.758,3.021,0c0.831-0.833,8.534-8.942,8.534-8.942
		c0.378-0.379,0.604-0.91,0.604-1.441c0-0.606-0.227-1.137-0.604-1.515C365.265,195.008,357.562,186.898,356.73,186.065z"/>
	<path fill="#212121" d="M357.5,279c-15.188,0-27.5-12.313-27.5-27.5c0-15.187,12.313-27.5,27.5-27.5s27.5,12.313,27.5,27.5
		C385,266.688,372.688,279,357.5,279z"/>
	<path fill="#FFFFFF" d="M358.27,261.936c0.754,0.758,2.19,0.758,3.021,0c0.831-0.834,0.906-1.971,0-3.031l-7.023-7.428l7.023-7.352
		c0.906-1.061,0.831-2.198,0-3.031c-0.829-0.834-2.267-0.758-3.021,0c-0.831,0.833-8.534,8.942-8.534,8.942
		c-0.378,0.379-0.604,0.909-0.604,1.44c0,0.605,0.227,1.137,0.604,1.516C349.735,252.992,357.438,261.102,358.27,261.936z"/>
	<path fill="#CCCCCC" d="M136,32.306L120.001,18.5v8.998h-15.999L104,36.5h16.001v9L136,32.306z"/>
	<path fill="#CCCCCC" d="M136,31.694L151.999,45.5v-8.998h15.999L168,27.5h-16.001v-9L136,31.694z"/>
	<path fill="#CCCCCC" d="M184.306,16L170.5,31.999h8.998v15.999L188.5,48V31.999h9L184.306,16z"/>
	<path fill="#CCCCCC" d="M215.694,48L229.5,32.001h-8.998V16.002L211.5,16v16.001h-9L215.694,48z"/>
	<g>
		<g>
			<path fill="#FFFFFF" d="M319.856,248.084c-2.837-1.466-8.057-1.69-11.817-1.635c0.326-3.233,1.312-7.206-0.268-10.034
				c-1.188-2.127-5.187-4.91-5.187-2.456c0,2.302-1.709,12.328-7.788,13.585l-1.289,0.131v17.187c0,0,3.515,5.115,11.294,5.115
				c7.78,0,9.294,0.612,11.886-4.297C319.281,260.77,322.863,249.635,319.856,248.084z M288.754,247.675H284v22.097h4.754
				c1.313,0,2.377-1.101,2.377-2.455v-17.188C291.131,248.775,290.067,247.675,288.754,247.675z M288.754,267.316h-2.377v-2.455
				h2.377V267.316z"/>
		</g>
	</g>
	<g>
		<path fill="#2D2D2D" d="M6,285l5.376,37.625L27.5,328l16.124-5.375L49,285H6z M40.399,295.746H21.676l0.448,5.377h17.733
			l-1.607,16.126l-10.75,2.688l-10.752-2.688l-0.807-8.063h6.183l0.561,4.031l4.819,1.344l5.372-1.344l0.673-6.719H15.673
			l-1.611-16.125H40.94L40.399,295.746z"/>
	</g>
	<g>
		<path fill="#2D2D2D" d="M74.813,291.121c0-2.827-2.296-5.121-5.124-5.121c-2.833,0-5.127,2.294-5.127,5.121
			c0,2.833,2.294,5.126,5.127,5.126C72.518,296.247,74.813,293.954,74.813,291.121 M100.437,291.121
			c0-2.827-2.292-5.121-5.124-5.121s-5.128,2.294-5.128,5.121c0,2.833,2.296,5.126,5.128,5.126S100.437,293.954,100.437,291.121
			 M87.626,316.749c0-2.832-2.294-5.124-5.126-5.124c-2.833,0-5.125,2.292-5.125,5.124c0,2.827,2.292,5.124,5.125,5.124
			C85.332,321.873,87.626,319.576,87.626,316.749 M68.937,303.936l-1.812,1.813l7.248,7.245l1.811-1.813L68.937,303.936z
			 M88.814,311.182l1.813,1.813l7.247-7.245l-1.813-1.813L88.814,311.182z M77.375,301.374c0-2.832-3.44-5.127-7.687-5.127
			c-4.248,0-7.688,2.295-7.688,5.127H77.375z M95.313,296.247c-4.245,0-7.687,2.295-7.687,5.127H103
			C103,298.542,99.556,296.247,95.313,296.247 M82.5,321.873c-4.244,0-7.688,2.294-7.688,5.124V327h15.371v-0.003
			C90.185,324.167,86.745,321.873,82.5,321.873"/>
	</g>
	<g>
		<g>
			<path fill="#2D2D2D" d="M154.856,303.084c-2.837-1.466-8.057-1.689-11.816-1.635c0.326-3.233,1.311-7.206-0.269-10.034
				c-1.188-2.127-5.187-4.91-5.187-2.456c0,2.303-1.708,12.328-7.788,13.585l-1.289,0.131v17.187c0,0,3.515,5.115,11.294,5.115
				c7.781,0,9.294,0.612,11.886-4.297C154.281,315.77,157.863,304.635,154.856,303.084z M123.754,302.675H119v22.097h4.754
				c1.313,0,2.377-1.101,2.377-2.455v-17.188C126.131,303.775,125.067,302.675,123.754,302.675z M123.754,322.316h-2.377v-2.455
				h2.377V322.316z"/>
		</g>
	</g>
	<g>
		<path fill="#2D2D2D" d="M14.372,343.604l-2.389-2.388c-0.654-0.651-1.728-0.651-2.384,0c-0.657,0.658-0.657,1.735,0,2.388
			l2.384,2.387c0.657,0.66,1.732,0.66,2.389,0C15.027,345.336,15.027,344.262,14.372,343.604"/>
		<path fill="#2D2D2D" d="M5.563,358.127H2.186c-0.928,0-1.686,0.756-1.686,1.686s0.758,1.688,1.686,1.688h3.376
			c0.927,0,1.69-0.759,1.69-1.688S6.489,358.127,5.563,358.127"/>
		<path fill="#2D2D2D" d="M52.812,361.492h-3.377c-0.927,0-1.687,0.758-1.687,1.689c0,0.93,0.76,1.686,1.687,1.686h3.377
			c0.925,0,1.688-0.756,1.688-1.686C54.5,362.25,53.737,361.492,52.812,361.492"/>
		<path fill="#2D2D2D" d="M47.78,343.604c-0.656-0.651-1.731-0.651-2.388,0l-2.386,2.387c-0.655,0.66-0.655,1.732,0,2.387
			c0.657,0.657,1.73,0.657,2.386,0l2.388-2.387C48.435,345.336,48.435,344.262,47.78,343.604"/>
		<path fill="#2D2D2D" d="M29.184,341.258c0.465,0,0.888-0.191,1.195-0.5c0.303-0.305,0.496-0.726,0.496-1.193v-3.375
			c0-0.93-0.761-1.688-1.689-1.688c-0.696,0-1.297,0.433-1.554,1.036l-0.135,0.658l0.002,3.373
			C27.499,340.498,28.26,341.258,29.184,341.258"/>
		<path fill="#2D2D2D" d="M27.493,348.002c-7.458,0-13.506,6.044-13.506,13.5c0,4.982,2.734,9.289,6.754,11.627v5.248h13.504v-5.248
			c4.018-2.338,6.749-6.645,6.749-11.627C40.994,354.046,34.948,348.002,27.493,348.002 M32.545,370.214l-1.677,0.976v1.939V375
			h-6.751v-1.871v-1.939l-1.679-0.976c-3.178-1.853-5.072-5.106-5.072-8.712c0-5.584,4.542-10.125,10.127-10.125
			c5.587,0,10.127,4.541,10.127,10.125C37.62,365.107,35.721,368.361,32.545,370.214"/>
		<path fill="#2D2D2D" d="M20.741,385.126h3.475l-0.1,0.422c0,1.626,1.521,2.952,3.376,2.952c1.854,0,3.375-1.326,3.375-2.952
			l-0.102-0.422h3.479v-3.375H20.741V385.126z"/>
	</g>
	<g>
		<path fill="#2D2D2D" d="M105,350.572V342h-8.438v2.857H68.436V342H60v8.572h2.811v22.857H60V382h8.436v-2.857h28.126V382H105
			v-8.57h-2.813v-22.856L105,350.572L105,350.572z M99.376,344.857h2.812v2.858h-2.812V344.857z M62.811,344.857h2.813v2.858h-2.813
			V344.857z M62.811,376.285h2.813v2.857h-2.813V376.285z M102.188,379.143h-2.812v-2.856h2.812V379.143z M99.376,373.43h-2.814
			v2.855H68.436v-2.855h-2.812v-22.856h2.812v-2.855h28.126v2.855h2.814V373.43z"/>
	</g>
	<g>
		<path fill="#2D2D2D" d="M118,369.965L137.498,380v-12.751L118,357.216V369.965z M139.938,379.793L157,371.012v-13.796
			l-17.062,9.716L139.938,379.793z M152.123,352.514v0.572h-0.017c-0.08,0.9-2.219,1.621-4.858,1.621s-4.775-0.721-4.858-1.621
			h-0.014v-3.396v-0.104h0.029l-0.029,0.104c0,0.925,2.181,1.672,4.872,1.672s4.875-0.748,4.875-1.672
			c0-0.926-2.184-1.674-4.875-1.674c-1.516,0-2.852,0.24-3.746,0.616l-1.159-0.524c-0.14,0.883-2.243,1.582-4.845,1.582
			c-2.601,0-4.703-0.699-4.844-1.582l-1.157,0.524c-0.896-0.376-2.231-0.616-3.747-0.616c-2.692,0-4.873,0.748-4.873,1.674
			c0,0.925,2.181,1.672,4.873,1.672s4.873-0.748,4.873-1.672l-0.031-0.104h0.031v0.104v3.396h-0.013
			c-0.086,0.9-2.223,1.621-4.86,1.621c-2.642,0-4.776-0.721-4.857-1.621h-0.016v-0.572L118,354.707l19.498,10.033L157,354.707
			L152.123,352.514z M142.376,354.916v3.396h-0.019c-0.082,0.897-2.222,1.617-4.859,1.617s-4.775-0.72-4.858-1.617h-0.017v-3.396
			v-0.104h0.031l-0.031,0.104c0,0.922,2.185,1.67,4.875,1.67S142.376,355.838,142.376,354.916l-0.033-0.104h0.033V354.916z
			 M137.498,346.343c2.69,0,4.878-0.745,4.878-1.669c0-0.926-2.188-1.674-4.878-1.674s-4.875,0.748-4.875,1.674
			C132.623,345.598,134.808,346.343,137.498,346.343"/>
	</g>
	<g>
		<path fill="#2D2D2D" d="M218.404,302.648l-12.151,4.949v-5.597c0-1.926-1.55-3.5-3.44-3.5h-34.374c-1.889,0-3.438,1.574-3.438,3.5
			v21c0,1.924,1.548,3.498,3.438,3.498h34.374c1.892,0,3.44-1.574,3.44-3.498V317.4l12.151,4.949
			c0.878,0.355,1.597-0.139,1.597-1.103V303.75C220,302.788,219.281,302.296,218.404,302.648 M192.501,319.501h-3.438v-3.503h3.438
			V319.501z M199.375,319.501h-3.437v-3.503h3.437V319.501z M199.375,309.002h-27.498v-3.5h27.498V309.002z M192.501,292.951v2.05
			h6.874v-4.948l-5.45-5.553h-25.487v7.005h22.64L192.501,292.951z"/>
	</g>
	<g>
		<path fill="#2D2D2D" d="M224,309.441V330h20.562v-11.749l-8.81-8.81H224z M241.624,319.469v7.598h-14.688v-14.688h7.6l1.216,1.215
			v4.659h4.659L241.624,319.469z M224,283v20.563h20.562v-11.75l-8.81-8.813H224L224,283z M241.624,293.025v7.597h-14.688v-14.685
			h7.6l1.216,1.217v4.656h4.659L241.624,293.025z M262.188,283h-11.752v20.563H271v-11.75L262.188,283z M268.062,300.622h-14.688
			v-14.685h7.595l1.219,1.217v4.656h4.657l1.217,1.215V300.622z M250.436,309.441V330H271v-11.749l-8.813-8.81H250.436z
			 M268.062,319.469v7.598h-14.688v-14.688h7.595l1.219,1.215v4.659h4.657L268.062,319.469z"/>
	</g>
	<g>
		<path fill="#2D2D2D" d="M290.75,288.873h-5.873v5.875h5.873V288.873z M296.625,283H279v17.622h17.625V283z M293.688,297.688
			h-11.749v-11.75h11.749V297.688z M320.122,288.873h-5.875v5.875h5.875V288.873z M308.376,300.622h17.621V283h-17.621V300.622z
			 M323.063,297.688h-11.748v-11.75h11.748V297.688z M284.877,324.127h5.873v-5.875h-5.873V324.127z M279.002,330h17.625v-17.626
			h-17.625V330z M281.938,315.311h11.749v11.75h-11.749V315.311z M299.563,315.311v2.941h2.938v5.875h2.937v-11.753H302.5v2.937
			H299.563z M320.122,312.374h-2.934v2.937h2.934v5.877h-2.934v-5.877h-5.877v-5.873h2.936v2.938h2.941v-2.938h2.934v-2.938h-2.934
			v-2.937h-2.941v2.937h-2.936v-2.937h-5.876v-5.875h-2.937v2.935h-2.938v2.94h2.938v5.873h5.875v14.69h2.938v2.937h-2.938V330
			h5.872v-2.938h2.941v-2.937h2.934v2.937h-2.566V330H326v-5.873h-2.938v-5.875H326v-2.941h-2.938v-5.873h-2.939V312.374
			L320.122,312.374z M314.247,321.188h-2.936v-2.936h2.936V321.188z M305.437,291.809V283h-5.873v2.938h2.938v2.937h-2.938v8.815
			h2.938v-5.881H305.437z M287.813,306.499h2.938v-2.937h-2.938V306.499z M293.688,306.499h-2.938v2.938h5.875v-2.938h2.938v-2.937
			h-5.876L293.688,306.499L293.688,306.499z M320.122,306.499h2.939v2.938H326v-5.873h-5.878V306.499z M299.563,312.374h2.938
			v-2.938h-2.938V312.374z M299.563,327.063h2.938v-2.936h-2.938V327.063z M305.437,327.063h-2.938V330h2.938V327.063z
			 M284.877,303.563h-5.875v5.873h8.812v-2.938h-2.937V303.563z"/>
	</g>
	<g>
		<polygon fill="#2D2D2D" points="315.438,364.314 310.981,353.063 308.161,353.063 303.575,369.861 299.716,339 296.896,339 
			287.254,365.475 280,369.939 291.266,369.939 297.418,347.393 299.716,384 305.348,384 309.985,358.523 313.796,369.939 
			325,364.314 		"/>
	</g>
	<path fill="#CCCCCC" d="M270.267,42.857l-8.053-8.051c1.122-1.75,1.78-3.826,1.78-6.059c0-6.212-5.034-11.247-11.247-11.247
		c-6.212,0-11.247,5.035-11.247,11.247s5.035,11.247,11.247,11.247c2.232,0,4.308-0.659,6.059-1.78l8.051,8.052
		c0.313,0.312,0.824,0.312,1.137,0l2.273-2.272C270.578,43.681,270.578,43.169,270.267,42.857z M252.747,36.781
		c-4.431,0-8.033-3.604-8.033-8.034c0-4.43,3.604-8.034,8.033-8.034c4.429,0,8.033,3.604,8.033,8.034
		C260.781,33.177,257.177,36.781,252.747,36.781z"/>
	<path fill="#FFFFFF" d="M301.75,17h-25.5c-2.338,0-4.25,1.929-4.25,4.286v15c0,2.357,1.912,4.285,4.25,4.285h8.5l8.5,6.429v-6.429
		h8.5c2.338,0,4.25-1.928,4.25-4.285v-15C306,18.929,304.088,17,301.75,17z"/>
	<path fill="#CCCCCC" d="M363.889,127.111h-0.949v2.111h-3.379v-2.111h-6.121v2.111h-3.379v-2.111h-0.949
		c-1.161,0-2.11,0.95-2.11,2.111v12.667c0,1.162,0.949,2.111,2.11,2.111h14.777c1.161,0,2.111-0.95,2.111-2.111v-12.667
		C366,128.062,365.05,127.111,363.889,127.111z M363.889,141.889h-14.777v-8.444h14.777V141.889z M352.488,125h-1.477v3.589h1.477
		V125z M361.988,125h-1.477v3.589h1.477V125z"/>
	<path fill="#2D2D2D" d="M335.75,17h-25.5c-2.339,0-4.25,1.929-4.25,4.286v15c0,2.357,1.911,4.285,4.25,4.285h8.5l8.5,6.429v-6.429
		h8.5c2.338,0,4.25-1.928,4.25-4.285v-15C340,18.929,338.088,17,335.75,17z"/>
	<g>
		<g>
			<path fill="#999999" d="M179.36,74.402c-0.959-1.461-4.184-2.37-7.376-3.668c-3.19-1.298-3.946-1.749-3.946-1.749l-0.029-2.988
				c0,0,1.195-0.897,1.565-3.709c0.748,0.212,1.533-1.088,1.574-1.773c0.041-0.661-0.104-2.492-1.014-2.308
				c0.186-1.378,0.32-2.618,0.256-3.274c-0.238-2.4-2.66-4.933-6.384-4.933c-3.726,0-6.147,2.533-6.384,4.933
				c-0.066,0.656,0.067,1.896,0.254,3.274c-0.912-0.184-1.058,1.647-1.017,2.308c0.045,0.685,0.828,1.985,1.577,1.773
				c0.371,2.812,1.566,3.709,1.566,3.709l-0.029,2.988c0,0-0.758,0.451-3.948,1.749c-3.192,1.298-6.417,2.207-7.378,3.668
				c-0.857,1.309-0.6,7.598-0.6,7.598h31.916C179.964,82,180.223,75.711,179.36,74.402z M145.622,72.113v-4.218
				c3.131,1.524,6.937,1.434,8.249-2.526c-2.063,0-4.126-2.077-4.126-8.31c0-4.155-6.187-7.495-8.247-5.418
				c-2.063-2.077-8.249,1.263-8.249,5.418c0,6.233-2.063,8.31-4.123,8.31c1.311,3.96,5.115,4.05,8.247,2.526v4.218
				c-3.182,2.403-6.954,2.512-9.688,3.263C126.102,75.81,125,78.3,125,79.954v2.037h22.048c-0.004-0.101-0.252-6.291,0.602-7.589
				c0.179-0.269,0.451-0.514,0.767-0.751C147.462,73.272,146.519,72.791,145.622,72.113z"/>
		</g>
	</g>
	<path fill="#999999" d="M207.5,51c-6.35,0-11.5,5.207-11.5,11.625C196,70.375,207.5,82,207.5,82S219,70.375,219,62.625
		C219,56.207,213.849,51,207.5,51z M207.5,70.375c-4.234,0-7.667-3.472-7.667-7.75s3.433-7.75,7.667-7.75
		c4.233,0,7.667,3.472,7.667,7.75S211.734,70.375,207.5,70.375z"/>
	<g>
		<g>
			<path fill="#999999" d="M253.263,54.406l-1.681-1.679c-0.461-0.459-1.219-0.459-1.68,0c-0.462,0.463-0.462,1.22,0,1.679
				l1.68,1.679c0.462,0.464,1.219,0.464,1.681,0C253.724,55.626,253.724,54.87,253.263,54.406z M247.063,64.625h-2.375
				c-0.652,0-1.188,0.534-1.188,1.188s0.535,1.188,1.188,1.188h2.375c0.653,0,1.188-0.533,1.188-1.188
				C248.252,65.159,247.717,64.625,247.063,64.625z M280.313,66.996h-2.375c-0.652,0-1.188,0.534-1.188,1.188
				c0,0.654,0.535,1.187,1.188,1.187h2.375c0.653,0,1.188-0.533,1.188-1.187C281.501,67.53,280.966,66.996,280.313,66.996z
				 M276.772,54.406c-0.462-0.459-1.218-0.459-1.68,0l-1.68,1.679c-0.461,0.464-0.461,1.22,0,1.679c0.462,0.464,1.218,0.464,1.68,0
				l1.68-1.679C277.234,55.626,277.234,54.87,276.772,54.406z M263.687,52.755c0.327,0,0.624-0.135,0.84-0.353
				c0.217-0.213,0.351-0.51,0.351-0.84v-2.375c0-0.654-0.534-1.188-1.188-1.188c-0.489,0-0.915,0.302-1.095,0.729l-0.096,0.464
				l0.002,2.375C262.5,52.221,263.034,52.755,263.687,52.755z M262.496,57.5c-5.248,0-9.503,4.254-9.503,9.5
				c0,3.507,1.923,6.536,4.751,8.183v3.692h9.503v-3.692c2.828-1.646,4.751-4.676,4.751-8.183
				C271.998,61.754,267.744,57.5,262.496,57.5z M266.052,73.133l-1.18,0.687v2.68h-4.752v-2.681l-1.181-0.687
				c-2.235-1.304-3.57-3.595-3.57-6.133c0-3.929,3.195-7.125,7.127-7.125c3.93,0,7.127,3.196,7.127,7.125
				C269.623,69.538,268.288,71.829,266.052,73.133z M257.744,83.625h2.444l-0.068,0.297c0,1.146,1.068,2.078,2.376,2.078
				c1.306,0,2.376-0.933,2.376-2.078l-0.07-0.297h2.445V81.25h-9.503V83.625L257.744,83.625z"/>
		</g>
	</g>
	<path fill="#252525" d="M359.5,279c17.948,0,32.5,14.551,32.5,32.5S377.448,344,359.5,344c-17.949,0-32.5-14.551-32.5-32.5
		S341.551,279,359.5,279z"/>
	<g>
		<path fill="#FFFFFF" d="M356,33.428c-1.705,1.701-3.479,3.572-6.22,3.572c-2.809,0-4.78-2.075-4.78-4.966
			c0-2.722,2.14-5.034,5.049-5.034c2.508,0,4.347,1.973,5.951,3.605c1.704-1.734,3.478-3.605,6.219-3.605
			c2.809,0,4.781,2.075,4.781,5.034c0,2.653-2.141,4.966-5.082,4.966C359.443,37,357.604,35.027,356,33.428z M354.661,32.034
			c-1.304-1.225-2.675-3.027-4.612-3.027c-1.672,0-2.942,1.394-2.942,3.027c0,1.701,1.204,2.959,2.875,2.959
			C351.854,34.993,353.393,33.36,354.661,32.034z M364.894,32.034c0-1.735-1.204-3.027-2.842-3.027
			c-1.905,0-3.444,1.701-4.714,3.027c1.304,1.19,2.675,2.959,4.646,2.959C363.622,34.993,364.894,33.633,364.894,32.034z"/>
	</g>
	<g>
		<g>
			<defs>
				<rect id="SVGID_1_" x="0" y="392.5" width="60" height="53"/>
			</defs>
			<clipPath id="SVGID_2_">
				<use xlink:href="#SVGID_1_"  overflow="visible"/>
			</clipPath>
			<path clip-path="url(#SVGID_2_)" fill="#32363B" d="M58.277,421.518c3.04-3.022,2.102-9.138-3.164-9.138l-13.85,0.011
				c0.523-2.933,1.286-7.787,1.255-8.246c-0.29-4.342-3.064-9.627-3.182-9.846c-0.504-0.938-3.059-2.215-5.626-1.666
				c-3.324,0.71-3.663,2.824-3.649,3.407c0,0,0.146,5.788,0.16,7.33c-1.586,3.483-7.062,12.636-8.724,13.342
				c-0.396-0.239-0.849-0.368-1.314-0.368H2.681c-1.48,0-2.681,1.198-2.681,2.678l0.002,24.153c0.104,1.304,1.211,2.324,2.521,2.324
				h15.713c1.395,0,2.527-1.132,2.527-2.522v-0.802c0,0,0.584-0.04,0.848,0.127c1.012,0.642,2.262,1.447,3.89,1.447h23.458
				c8.765,0,7.824-7.772,7.024-8.836c1.481-1.612,2.397-4.452,1.146-6.698C58.098,427.2,59.79,424.407,58.277,421.518"/>
		</g>
		<g>
			<defs>
				<rect id="SVGID_3_" x="0" y="392.5" width="60" height="53"/>
			</defs>
			<clipPath id="SVGID_4_">
				<use xlink:href="#SVGID_3_"  overflow="visible"/>
			</clipPath>
			<path clip-path="url(#SVGID_4_)" fill="#FFFFFF" d="M54.717,414.914H38.179c0.639-2.531,1.816-10.598,1.816-10.598
				c-0.268-3.916-2.891-8.83-2.891-8.83c-3.117-1.311-4.518,0.486-4.518,0.486s0.162,6.225,0.162,7.661
				c0,1.438-7.122,12.935-8.862,14.415c-0.922,0.785-2.578,1.864-3.926,2.702v18.554l1.08,0.001c1.244,0,2.771,1.919,4.458,1.919
				l23.856-0.01c4.795,0,5.559-5.395,2.395-5.913l0.141-0.596c3.034-0.326,4.879-5.117,1.006-6.1l0.143-0.6
				c2.896-0.304,5.046-4.954,1.005-6.102l0.142-0.597C57.992,420.712,58.768,414.915,54.717,414.914"/>
		</g>
		<g>
			<defs>
				<rect id="SVGID_5_" x="0" y="392.5" width="60" height="53"/>
			</defs>
			<clipPath id="SVGID_6_">
				<use xlink:href="#SVGID_5_"  overflow="visible"/>
			</clipPath>
			<rect x="2.522" y="418.868" clip-path="url(#SVGID_6_)" fill="#6984B0" width="15.75" height="24.106"/>
		</g>
	</g>
	<g>
		<g>
			<defs>
				<rect id="SVGID_7_" x="65.5" y="399" width="49" height="40"/>
			</defs>
			<clipPath id="SVGID_8_">
				<use xlink:href="#SVGID_7_"  overflow="visible"/>
			</clipPath>
			<path clip-path="url(#SVGID_8_)" fill="#2CAAE1" d="M114.5,403.734c-1.804,0.804-3.74,1.347-5.774,1.591
				c2.076-1.25,3.669-3.229,4.42-5.587c-1.942,1.156-4.094,1.998-6.384,2.451c-1.833-1.963-4.446-3.189-7.337-3.189
				c-5.552,0-10.053,4.521-10.053,10.098c0,0.793,0.089,1.563,0.26,2.303c-8.355-0.422-15.762-4.442-20.721-10.553
				c-0.865,1.492-1.361,3.228-1.361,5.077c0,3.504,1.774,6.595,4.472,8.405c-1.647-0.053-3.197-0.508-4.553-1.264
				c-0.001,0.043-0.001,0.084-0.001,0.127c0,4.893,3.465,8.975,8.064,9.901c-0.845,0.23-1.731,0.354-2.648,0.354
				c-0.648,0-1.278-0.063-1.892-0.183c1.278,4.013,4.991,6.933,9.391,7.014c-3.44,2.708-7.775,4.322-12.485,4.322
				c-0.812,0-1.61-0.048-2.397-0.142c4.449,2.865,9.732,4.537,15.41,4.537c18.49,0,28.603-15.387,28.603-28.73
				c0-0.438-0.01-0.873-0.029-1.307C111.448,407.538,113.152,405.761,114.5,403.734"/>
		</g>
	</g>
	<path fill="#212121" d="M390.331,125.539c-0.399,0.146-21.631,7.439-22.03,7.585c-0.351,0.098-0.449,0.438,0,0.584
		c0.5,0.193,4.745,1.847,4.745,1.847l0,0l2.799,1.07c0,0,13.537-9.627,13.737-9.774c0.147-0.146,0.397,0.098,0.249,0.243
		c-0.148,0.146-9.841,10.357-9.841,10.357l0,0l-0.551,0.633l0.749,0.388l0,0c0,0,5.796,3.017,6.196,3.258
		c0.396,0.195,0.849,0,0.947-0.437c0.15-0.486,3.548-14.88,3.646-15.219C391.079,125.685,390.781,125.392,390.331,125.539z
		 M375.794,143.238c0,0.291,0.198,0.34,0.448,0.146c0.302-0.292,3.547-3.112,3.547-3.112l-3.995-1.992V143.238z"/>
	<g id="twitter_3_">
		<path fill="#2D2D2D" d="M20.5,454.776c-0.663,0.302-1.375,0.505-2.122,0.596c0.764-0.468,1.348-1.212,1.625-2.095
			c-0.714,0.435-1.505,0.749-2.345,0.919c-0.676-0.737-1.635-1.196-2.696-1.196c-2.039,0-3.692,1.695-3.692,3.788
			c0,0.297,0.032,0.584,0.095,0.863c-3.067-0.159-5.79-1.664-7.61-3.957c-0.319,0.558-0.501,1.209-0.501,1.901
			c0,1.313,0.651,2.475,1.644,3.153c-0.604-0.02-1.174-0.189-1.673-0.476c-0.001,0.018-0.001,0.031-0.001,0.048
			c0,1.834,1.273,3.363,2.962,3.712c-0.31,0.089-0.636,0.134-0.973,0.134c-0.237,0-0.467-0.024-0.694-0.067
			c0.469,1.505,1.833,2.6,3.448,2.63c-1.262,1.016-2.855,1.621-4.585,1.621c-0.296,0-0.592-0.018-0.88-0.054
			C4.134,467.372,6.075,468,8.162,468c6.792,0,10.507-5.771,10.507-10.772c0-0.165-0.003-0.328-0.01-0.49
			C19.379,456.203,20.004,455.536,20.5,454.776"/>
	</g>
	<g id="facebook_3_">
		<path fill="#2D2D2D" d="M39.5,454.63h-2.856c-0.337,0-0.714,0.443-0.714,1.039v2.063h3.57v2.938h-3.57v8.83h-3.372v-8.83H29.5
			v-2.938h3.058V456c0-2.48,1.721-4.5,4.086-4.5H39.5V454.63z"/>
	</g>
	<g id="twitter_4_">
		<path fill="#FFFFFF" d="M20.5,477.776c-0.663,0.302-1.375,0.505-2.122,0.596c0.764-0.468,1.348-1.212,1.625-2.095
			c-0.714,0.435-1.505,0.749-2.345,0.919c-0.676-0.737-1.635-1.196-2.696-1.196c-2.039,0-3.692,1.695-3.692,3.788
			c0,0.297,0.032,0.584,0.095,0.863c-3.067-0.159-5.79-1.664-7.61-3.957c-0.319,0.558-0.501,1.209-0.501,1.901
			c0,1.313,0.651,2.475,1.644,3.153c-0.604-0.02-1.174-0.189-1.673-0.476c-0.001,0.018-0.001,0.031-0.001,0.048
			c0,1.834,1.273,3.363,2.962,3.712c-0.31,0.089-0.636,0.134-0.973,0.134c-0.237,0-0.467-0.024-0.694-0.067
			c0.469,1.505,1.833,2.6,3.448,2.63c-1.262,1.016-2.855,1.621-4.585,1.621c-0.296,0-0.592-0.018-0.88-0.054
			C4.134,490.372,6.075,491,8.162,491c6.792,0,10.507-5.771,10.507-10.772c0-0.165-0.003-0.328-0.01-0.49
			C19.379,479.203,20.004,478.536,20.5,477.776"/>
	</g>
	<g id="facebook_4_">
		<path fill="#FFFFFF" d="M39.5,477.63h-2.855c-0.338,0-0.715,0.443-0.715,1.039v2.063h3.57v2.938h-3.57v8.83h-3.371v-8.83H29.5
			v-2.938h3.059V479c0-2.48,1.721-4.5,4.086-4.5H39.5V477.63z"/>
	</g>
	<path fill="#2D2D2D" d="M49.456,455.988c0,1.527,0.5,2.631,1.488,3.278c0.81,0.53,1.747,0.609,2.234,0.609
		c0.119,0,0.214-0.004,0.281-0.009c0,0-0.155,1.024,0.592,2.041l-0.034-0.001c-1.295,0-5.518,0.275-5.518,3.812
		c0,3.598,3.878,3.78,4.655,3.78c0.063,0,0.099-0.001,0.099-0.001c0.007,0,0.063,0.001,0.158,0.001c0.499,0,1.79-0.063,2.988-0.657
		c1.556-0.768,2.344-2.104,2.344-3.974c0-1.806-1.201-2.879-2.079-3.664c-0.535-0.479-0.998-0.893-0.998-1.293
		c0-0.409,0.337-0.718,0.766-1.106c0.691-0.631,1.344-1.526,1.344-3.223c0-1.49-0.189-2.491-1.358-3.126
		c0.122-0.064,0.552-0.11,0.766-0.141c0.634-0.088,1.562-0.188,1.562-0.715V451.5h-4.618
		C54.079,451.502,49.456,451.676,49.456,455.988z M56.911,465.206c0.088,1.438-1.12,2.501-2.935,2.636
		c-1.843,0.136-3.358-0.708-3.448-2.145c-0.043-0.691,0.256-1.368,0.84-1.907c0.591-0.546,1.404-0.882,2.287-0.949
		c0.104-0.006,0.208-0.011,0.312-0.011C55.672,462.83,56.828,463.852,56.911,465.206z M55.705,455.004
		c0.453,1.624-0.231,3.32-1.321,3.633c-0.125,0.036-0.255,0.056-0.386,0.056c-0.999,0-1.99-1.029-2.355-2.446
		c-0.206-0.797-0.188-1.494,0.046-2.163c0.231-0.657,0.646-1.103,1.168-1.252c0.125-0.037,0.255-0.055,0.387-0.055
		C54.449,452.775,55.224,453.284,55.705,455.004z M63.487,458.539v-3.069h-1.908v3.069h-3.014v1.942h3.014v3.068h1.908v-3.068H66.5
		v-1.942H63.487z"/>
	<path fill="#FFFFFF" d="M49.456,478.988c0,1.527,0.5,2.631,1.488,3.278c0.81,0.53,1.747,0.609,2.234,0.609
		c0.119,0,0.214-0.004,0.281-0.009c0,0-0.155,1.024,0.592,2.041l-0.034-0.001c-1.295,0-5.518,0.275-5.518,3.812
		c0,3.598,3.878,3.78,4.655,3.78c0.063,0,0.099-0.001,0.099-0.001c0.007,0,0.063,0.001,0.158,0.001c0.499,0,1.79-0.063,2.988-0.657
		c1.556-0.768,2.344-2.104,2.344-3.974c0-1.806-1.201-2.879-2.079-3.664c-0.535-0.479-0.998-0.893-0.998-1.293
		c0-0.409,0.337-0.718,0.766-1.106c0.691-0.631,1.344-1.526,1.344-3.223c0-1.49-0.189-2.491-1.358-3.126
		c0.122-0.064,0.552-0.11,0.766-0.141c0.634-0.088,1.562-0.188,1.562-0.715V474.5h-4.618
		C54.079,474.502,49.456,474.676,49.456,478.988z M56.911,488.206c0.088,1.438-1.12,2.501-2.935,2.636
		c-1.843,0.136-3.358-0.708-3.448-2.145c-0.043-0.691,0.256-1.368,0.84-1.907c0.591-0.546,1.404-0.882,2.287-0.949
		c0.104-0.006,0.208-0.011,0.312-0.011C55.672,485.83,56.828,486.852,56.911,488.206z M55.705,478.004
		c0.453,1.624-0.231,3.32-1.321,3.633c-0.125,0.036-0.255,0.056-0.386,0.056c-0.999,0-1.99-1.029-2.355-2.446
		c-0.206-0.797-0.188-1.494,0.046-2.163c0.231-0.657,0.646-1.103,1.168-1.252c0.125-0.037,0.255-0.055,0.387-0.055
		C54.449,475.775,55.224,476.284,55.705,478.004z M63.487,481.539v-3.069h-1.908v3.069h-3.014v1.942h3.014v3.068h1.908v-3.068H66.5
		v-1.942H63.487z"/>
	<g>
		<path fill="#2D2D2D" d="M75.576,453.452c0,1.077-0.785,1.95-2.076,1.95c-1.215,0-2-0.873-2-1.95c0-1.105,0.81-1.952,2.05-1.952
			C74.791,451.5,75.551,452.347,75.576,453.452z M71.601,469.5v-12.557h3.85V469.5H71.601z"/>
		<path fill="#2D2D2D" d="M77.752,460.948c0-1.565-0.05-2.874-0.102-4.005h3.343l0.178,1.747h0.075
			c0.506-0.822,1.747-2.03,3.822-2.03c2.532,0,4.432,1.722,4.432,5.419v7.421h-3.85v-6.959c0-1.617-0.557-2.721-1.948-2.721
			c-1.064,0-1.696,0.741-1.976,1.463c-0.101,0.256-0.127,0.615-0.127,0.975v7.242h-3.848V460.948L77.752,460.948z"/>
	</g>
	<g>
		<path fill="#FFFFFF" d="M75.576,476.452c0,1.077-0.785,1.95-2.076,1.95c-1.215,0-2-0.873-2-1.95c0-1.105,0.81-1.952,2.05-1.952
			C74.791,474.5,75.551,475.347,75.576,476.452z M71.601,492.5v-12.557h3.85V492.5H71.601z"/>
		<path fill="#FFFFFF" d="M77.752,483.948c0-1.565-0.05-2.874-0.102-4.005h3.343l0.178,1.747h0.075
			c0.506-0.822,1.747-2.03,3.822-2.03c2.532,0,4.432,1.722,4.432,5.419v7.421h-3.85v-6.959c0-1.617-0.557-2.721-1.948-2.721
			c-1.064,0-1.696,0.741-1.976,1.463c-0.101,0.256-0.127,0.615-0.127,0.975v7.242h-3.848V483.948L77.752,483.948z"/>
	</g>
	<g id="mail_2_">
		<path fill="#2D2D2D" d="M322.396,4.749c0.326,0.181,4.832,2.686,5,2.779c0.168,0.093,0.385,0.138,0.604,0.138
			c0.219,0,0.438-0.045,0.604-0.137c0.168-0.094,4.676-2.598,5-2.779C333.93,4.568,334.239,4,333.641,4h-11.279
			C321.764,4,322.07,4.568,322.396,4.749 M333.742,6.128c-0.37,0.199-4.912,2.656-5.138,2.779c-0.228,0.123-0.387,0.138-0.604,0.138
			c-0.219,0-0.379-0.015-0.604-0.137c-0.228-0.124-4.769-2.58-5.139-2.779C321.998,5.988,322,6.152,322,6.28v5.059
			c0,0.289,0.372,0.661,0.661,0.661h10.679c0.289,0,0.66-0.372,0.66-0.661V6.28C334,6.152,334.003,5.988,333.742,6.128"/>
	</g>
	<g id="phone_2_">
		<path fill="#2D2D2D" d="M346.62,1h-5.24C340.62,1,340,1.643,340,2.429v11.143c0,0.785,0.62,1.428,1.379,1.428h5.24
			c0.76,0,1.381-0.643,1.381-1.429V2.429C348,1.643,347.379,1,346.62,1 M344,14.428c-0.533,0-0.967-0.319-0.967-0.714
			c0-0.394,0.434-0.714,0.967-0.714c0.532,0,0.965,0.32,0.965,0.714C344.965,14.109,344.532,14.428,344,14.428 M346.896,12.286
			h-5.793V2.857h5.793V12.286z"/>
	</g>
	<path fill="#212121" d="M427.5,169c15.188,0,27.5,12.313,27.5,27.5c0,15.188-12.313,27.5-27.5,27.5
		c-15.188,0-27.5-12.312-27.5-27.5C400,181.313,412.312,169,427.5,169z"/>
	<rect x="400" y="184.497" fill="none" width="55" height="35"/>
	<text transform="matrix(1 0 0 1 411.1858 193.1602)" fill="#FFFFFF" font-family="'Akkurat'" font-size="12">Guest</text>
	<text transform="matrix(1 0 0 1 408.7981 207.5596)" fill="#FFFFFF" font-family="'Akkurat'" font-size="12">Author</text>
	<g>
		<g>
			<path fill="#2D2D2D" d="M93,463.363h5.727v-5.728H93V463.363z M93,471h5.727v-5.728H93V471z M100.636,471h5.728v-5.728h-5.728
				V471z M100.636,463.363h5.728v-5.728h-5.728V463.363z M108.273,450v5.728H114V450H108.273z M108.273,463.363H114v-5.728h-5.728
				V463.363z M108.273,471H114v-5.728h-5.728V471z M100.636,455.728h5.728V450h-5.728V455.728z M93,455.728h5.727V450H93V455.728z"
				/>
		</g>
	</g>
	<g>
		<g>
			<path fill="#FFFFFF" d="M93,486.363h5.727v-5.728H93V486.363z M93,494h5.727v-5.728H93V494z M100.636,494h5.728v-5.728h-5.728
				V494z M100.636,486.363h5.728v-5.728h-5.728V486.363z M108.273,473v5.728H114V473H108.273z M108.273,486.363H114v-5.728h-5.728
				V486.363z M108.273,494H114v-5.728h-5.728V494z M100.636,478.728h5.728V473h-5.728V478.728z M93,478.728h5.727V473H93V478.728z"
				/>
		</g>
	</g>
	<g id="phone_3_">
		<path fill="#2D2D2D" d="M255.691,339.5h-16.379c-2.371,0-4.312,2.02-4.312,4.493v35.021c0,2.467,1.94,4.486,4.309,4.486h16.379
			c2.37,0,4.313-2.02,4.313-4.493v-35.014C260,341.52,258.059,339.5,255.691,339.5 M247.5,381.701c-1.667,0-3.02-1-3.02-2.244
			c0-1.236,1.353-2.241,3.02-2.241s3.015,1.005,3.015,2.241C250.515,380.701,249.167,381.701,247.5,381.701 M256.552,374.971
			h-18.103v-29.633h18.103V374.971z"/>
	</g>
	<g id="phone_4_">
		<path fill="#FFFFFF" d="M310.691,174.5h-16.38c-2.371,0-4.312,2.02-4.312,4.493v35.02c0,2.468,1.939,4.487,4.31,4.487h16.379
			c2.37,0,4.313-2.02,4.313-4.493v-35.014C315,176.52,313.059,174.5,310.691,174.5 M302.5,216.701c-1.666,0-3.021-1-3.021-2.244
			c0-1.237,1.354-2.243,3.021-2.243c1.665,0,3.015,1.006,3.015,2.243C305.515,215.701,304.165,216.701,302.5,216.701
			 M311.552,209.97h-18.103v-29.632h18.103V209.97z"/>
	</g>
	<g>
		<polygon fill="#2D2D2D" points="202.441,364.563 206.173,368.422 208.04,366.492 204.309,362.633 		"/>
		<rect x="206.721" y="355.559" fill="#2D2D2D" width="5.279" height="2.73"/>
		<polygon fill="#2D2D2D" points="209.902,345.266 208.039,343.336 204.308,347.193 206.173,349.125 		"/>
		<rect x="195.844" y="341.5" fill="#2D2D2D" width="2.639" height="5.457"/>
		<polygon fill="#2D2D2D" points="191.248,349.125 187.513,345.268 185.648,347.195 189.379,351.057 		"/>
		<path fill="#2D2D2D" d="M198.577,349.258L173,375.709l5.596,5.791l25.578-26.451L198.577,349.258z M192.977,358.908l5.601-5.787
			l1.866,1.928l-5.6,5.789L192.977,358.908z"/>
	</g>
	<g>
		<polygon fill="#FFFFFF" points="202.441,199.563 206.174,203.422 208.04,201.492 204.309,197.633 		"/>
		<rect x="206.722" y="190.559" fill="#FFFFFF" width="5.278" height="2.73"/>
		<polygon fill="#FFFFFF" points="209.902,180.266 208.039,178.336 204.309,182.194 206.174,184.125 		"/>
		<rect x="195.844" y="176.5" fill="#FFFFFF" width="2.64" height="5.457"/>
		<polygon fill="#FFFFFF" points="191.248,184.125 187.514,180.268 185.648,182.195 189.379,186.057 		"/>
		<path fill="#FFFFFF" d="M198.577,184.258L173,210.709l5.596,5.791l25.578-26.451L198.577,184.258z M192.977,193.908l5.602-5.787
			l1.865,1.928l-5.6,5.789L192.977,193.908z"/>
	</g>
</g>
<g id="Guides">
	<rect x="-25.333" y="5.167" fill="none" width="14.167" height="11.833"/>
	<text transform="matrix(1 0 0 1 -25.3337 9.4268)" fill="#010101" font-family="'MyriadPro-Regular'" font-size="6">16</text>
	<rect x="-25.333" y="29.386" fill="none" width="14.167" height="11.833"/>
	<text transform="matrix(1 0 0 1 -25.3337 33.6455)" fill="#010101" font-family="'MyriadPro-Regular'" font-size="6">32</text>
	<rect x="-24.667" y="57.583" fill="none" width="14.167" height="11.833"/>
	<text transform="matrix(1 0 0 1 -24.6677 61.8438)" fill="#010101" font-family="'MyriadPro-Regular'" font-size="6">25</text>
	<rect x="-24.667" y="83.084" fill="none" width="14.167" height="11.833"/>
	<text transform="matrix(1 0 0 1 -24.6677 87.3438)" fill="#010101" font-family="'MyriadPro-Regular'" font-size="6">25</text>
	<rect x="-25.333" y="134.583" fill="none" width="14.167" height="11.834"/>
	<text transform="matrix(1 0 0 1 -25.3337 138.8438)" fill="#010101" font-family="'MyriadPro-Regular'" font-size="6">23</text>
	<rect x="-24.667" y="109.001" fill="none" width="14.167" height="11.834"/>
	<text transform="matrix(1 0 0 1 -24.6677 113.2617)" fill="#010101" font-family="'MyriadPro-Regular'" font-size="6">25</text>
	<text transform="matrix(1 0 0 1 -24.6677 159.5938)" fill="#010101" font-family="'MyriadPro-Regular'" font-size="6">23</text>
	<text transform="matrix(1 0 0 1 -25.3337 200.001)" fill="#010101" font-family="'MyriadPro-Regular'" font-size="6">55</text>
	<text transform="matrix(1 0 0 1 -24.6677 256)" fill="#010101" font-family="'MyriadPro-Regular'" font-size="6">55</text>
	<text transform="matrix(1 0 0 1 -24.6677 309.7227)" fill="#010101" font-family="'MyriadPro-Regular'" font-size="6">55</text>
	<text transform="matrix(1 0 0 1 -24.6677 367.3496)" fill="#010101" font-family="'MyriadPro-Regular'" font-size="6">55</text>
	<text transform="matrix(0.8 0 0 1 -24.6672 422.29)" fill="#010101" font-family="'MyriadPro-Regular'" font-size="7.5">55</text>
	<text transform="matrix(0.8 0 0 1 -24.6672 464.54)" fill="#010101" font-family="'MyriadPro-Regular'" font-size="7.5">23</text>
	<text transform="matrix(0.8 0 0 1 -24.6672 488.29)" fill="#010101" font-family="'MyriadPro-Regular'" font-size="7.5">23</text>
</g>
<path fill="#FFFFFF" d="M476,0c-13.25,0-24,10.75-24,24c0,16,24,40,24,40s24-24,24-40C500,10.75,489.25,0,476,0z M476,40
	c-8.838,0-16-7.168-16-16s7.162-16,16-16s16,7.168,16,16S484.838,40,476,40z"/>
</svg>
